<svg width="20" height="20" viewBox="0 0 20 20" fill="none" xmlns="http://www.w3.org/2000/svg">
<path d="M18 4.44444V2.22222H2V17.7778H18V15.5556H10C9.44771 15.5556 9.00001 15.0581 9.00001 14.4444V5.55556C9.00001 4.94191 9.44771 4.44444 10 4.44444H18ZM0.999999 0H19C19.5523 0 20 0.497467 20 1.11111V18.8889C20 19.5026 19.5523 20 19 20H0.999999C0.44772 20 0 19.5026 0 18.8889V1.11111C0 0.497467 0.44772 0 0.999999 0ZM11 6.66667V13.3333H18V6.66667H11ZM13 8.88889H16V11.1111H13V8.88889Z" fill="#EEEEEE"/>
</svg>
