<svg width="20" height="20" viewBox="0 0 20 20" fill="none" xmlns="http://www.w3.org/2000/svg">
<path d="M11.0792 6.04301L12.5181 7.48191C15.2995 10.2633 15.2995 14.7729 12.5181 17.5542L12.1583 17.9139C9.37698 20.6954 4.86743 20.6954 2.08604 17.9139C-0.695347 15.1325 -0.695347 10.6231 2.08604 7.84163L3.52493 9.28053C1.53823 11.2672 1.53823 14.4884 3.52493 16.4751C5.51164 18.4617 8.73273 18.4617 10.7194 16.4751L11.0792 16.1153C13.0659 14.1286 13.0659 10.9075 11.0792 8.92086L9.6403 7.48191L11.0792 6.04301ZM17.9139 12.1583L16.4751 10.7194C18.4617 8.73273 18.4617 5.51164 16.4751 3.52493C14.4884 1.53823 11.2672 1.53823 9.28053 3.52493L8.92086 3.88467C6.9341 5.87137 6.9341 9.0925 8.92086 11.0792L10.3597 12.5181L8.92086 13.957L7.48191 12.5181C4.70052 9.73665 4.70052 5.22715 7.48191 2.44576L7.84163 2.08604C10.6231 -0.695347 15.1325 -0.695347 17.9139 2.08604C20.6954 4.86743 20.6954 9.37698 17.9139 12.1583Z" fill="#EEEEEE"/>
</svg>
