<svg width="20" height="20" viewBox="0 0 20 20" fill="none" xmlns="http://www.w3.org/2000/svg">
<path d="M6.95975 2.66021L9.35128 0.268726C9.70956 -0.0895752 10.2904 -0.0895752 10.6488 0.268726L13.0403 2.66021H16.4223C16.929 2.66021 17.3398 3.07098 17.3398 3.57769V6.95976L19.7313 9.35127C20.0896 9.70955 20.0896 10.2905 19.7313 10.6488L17.3398 13.0403V16.4223C17.3398 16.9291 16.929 17.3398 16.4223 17.3398H13.0403L10.6488 19.7313C10.2904 20.0896 9.70956 20.0896 9.35128 19.7313L6.95975 17.3398H3.57768C3.07097 17.3398 2.66021 16.9291 2.66021 16.4223V13.0403L0.268725 10.6488C-0.0895752 10.2905 -0.0895752 9.70955 0.268725 9.35127L2.66021 6.95976V3.57769C2.66021 3.07098 3.07097 2.66021 3.57768 2.66021H6.95975ZM4.49516 4.49516V7.71982L2.21498 10L4.49516 12.2802V15.5049H7.71982L10 17.7851L12.2801 15.5049H15.5049V12.2802L17.785 10L15.5049 7.71982V4.49516H12.2801L10 2.21498L7.71982 4.49516H4.49516ZM10 13.6699C7.97317 13.6699 6.3301 12.0268 6.3301 10C6.3301 7.97317 7.97317 6.33011 10 6.33011C12.0268 6.33011 13.6699 7.97317 13.6699 10C13.6699 12.0268 12.0268 13.6699 10 13.6699ZM10 11.835C11.0134 11.835 11.835 11.0135 11.835 10C11.835 8.98658 11.0134 8.16507 10 8.16507C8.98659 8.16507 8.16508 8.98658 8.16508 10C8.16508 11.0135 8.98659 11.835 10 11.835Z" fill="#EEEEEE"/>
</svg>
