<svg width="30" height="30" viewBox="0 0 30 30" fill="none" xmlns="http://www.w3.org/2000/svg">
<path d="M16.2851 2.50122C17.6919 2.50355 18.4047 2.51098 19.0207 2.52932L19.2634 2.53726C19.5436 2.54722 19.8201 2.55972 20.1535 2.57535C21.4836 2.6368 22.391 2.84722 23.1879 3.1566C24.0117 3.4743 24.7076 3.90347 25.4024 4.59826C26.0961 5.29305 26.5254 5.99097 26.8441 6.81285C27.1524 7.60867 27.3629 8.51701 27.4254 9.84722C27.4402 10.1805 27.4522 10.457 27.4621 10.7374L27.47 10.98C27.4882 11.5959 27.4966 12.3089 27.4992 13.7156L27.5002 14.6477C27.5004 14.7616 27.5004 14.8791 27.5004 15.0004L27.5002 15.353L27.4995 16.2851C27.4971 17.6919 27.4897 18.4047 27.4714 19.0207L27.4634 19.2634C27.4535 19.5436 27.441 19.8201 27.4254 20.1535C27.3639 21.4836 27.1524 22.391 26.8441 23.1879C26.5264 24.0117 26.0961 24.7076 25.4024 25.4024C24.7076 26.0961 24.0086 26.5254 23.1879 26.8441C22.391 27.1524 21.4836 27.3629 20.1535 27.4254C19.8201 27.4402 19.5436 27.4522 19.2634 27.4621L19.0207 27.47C18.4047 27.4882 17.6919 27.4966 16.2851 27.4992L15.353 27.5002C15.2391 27.5004 15.1216 27.5004 15.0004 27.5004L14.6477 27.5002L13.7156 27.4995C12.3089 27.4971 11.5959 27.4897 10.98 27.4714L10.7374 27.4634C10.457 27.4535 10.1805 27.441 9.84722 27.4254C8.51701 27.3639 7.61076 27.1524 6.81285 26.8441C5.98992 26.5264 5.29305 26.0961 4.59826 25.4024C3.90347 24.7076 3.47535 24.0086 3.1566 23.1879C2.84722 22.391 2.63785 21.4836 2.57535 20.1535C2.5605 19.8201 2.54838 19.5436 2.53857 19.2634L2.53071 19.0207C2.51242 18.4047 2.50408 17.6919 2.50138 16.2851L2.50122 13.7156C2.50355 12.3089 2.51098 11.5959 2.52932 10.98L2.53726 10.7374C2.54722 10.457 2.55972 10.1805 2.57535 9.84722C2.6368 8.51597 2.84722 7.60972 3.1566 6.81285C3.4743 5.98992 3.90347 5.29305 4.59826 4.59826C5.29305 3.90347 5.99097 3.47535 6.81285 3.1566C7.60972 2.84722 8.51597 2.63785 9.84722 2.57535C10.1805 2.5605 10.457 2.54838 10.7374 2.53857L10.98 2.53071C11.5959 2.51242 12.3089 2.50408 13.7156 2.50138L16.2851 2.50122ZM15.0004 8.75035C11.5467 8.75035 8.75035 11.5498 8.75035 15.0004C8.75035 18.454 11.5498 21.2504 15.0004 21.2504C18.454 21.2504 21.2504 18.4509 21.2504 15.0004C21.2504 11.5467 18.4509 8.75035 15.0004 8.75035ZM15.0004 11.2503C17.0715 11.2503 18.7504 12.9286 18.7504 15.0004C18.7504 17.0715 17.072 18.7504 15.0004 18.7504C12.9292 18.7504 11.2503 17.072 11.2503 15.0004C11.2503 12.9292 12.9286 11.2503 15.0004 11.2503ZM21.5629 6.87535C20.7012 6.87535 20.0004 7.57522 20.0004 8.43678C20.0004 9.29833 20.7002 9.9993 21.5629 9.9993C22.4244 9.9993 23.1254 9.29942 23.1254 8.43678C23.1254 7.57522 22.4232 6.87426 21.5629 6.87535Z" fill="#909090"/>
</svg>
