<svg width="30" height="30" viewBox="0 0 30 30" fill="none" xmlns="http://www.w3.org/2000/svg">
<path d="M15.0012 2.5C8.09497 2.5 2.50122 8.09375 2.50122 15C2.50122 20.5313 6.07935 25.2031 11.0481 26.8594C11.6731 26.9687 11.9075 26.5938 11.9075 26.2656C11.9075 25.9688 11.8918 24.9844 11.8918 23.9375C8.75122 24.5156 7.93872 23.1719 7.68872 22.4688C7.5481 22.1094 6.93872 21 6.40747 20.7031C5.96997 20.4688 5.34497 19.8906 6.39185 19.875C7.37622 19.8594 8.07935 20.7812 8.31372 21.1562C9.43872 23.0469 11.2356 22.5156 11.9543 22.1875C12.0637 21.375 12.3918 20.8281 12.7512 20.5156C9.96997 20.2031 7.06372 19.125 7.06372 14.3438C7.06372 12.9844 7.5481 11.8594 8.34497 10.9844C8.21997 10.6719 7.78247 9.39062 8.46997 7.67187C8.46997 7.67187 9.51685 7.34375 11.9075 8.95312C12.9075 8.67187 13.97 8.53125 15.0325 8.53125C16.095 8.53125 17.1575 8.67187 18.1575 8.95312C20.5481 7.32812 21.595 7.67187 21.595 7.67187C22.2825 9.39062 21.845 10.6719 21.72 10.9844C22.5169 11.8594 23.0012 12.9688 23.0012 14.3438C23.0012 19.1406 20.0794 20.2031 17.2981 20.5156C17.7512 20.9063 18.1419 21.6563 18.1419 22.8281C18.1419 24.5 18.1262 25.8438 18.1262 26.2656C18.1262 26.5938 18.3606 26.9844 18.9856 26.8594C24.0737 25.1416 27.4999 20.3704 27.5012 15C27.5012 8.09375 21.9075 2.5 15.0012 2.5Z" fill="#909090"/>
</svg>
