<svg width="28" height="26" viewBox="0 0 28 26" fill="none" xmlns="http://www.w3.org/2000/svg">
<path d="M0.0189312 18.811C1.07413 18.0178 2.18796 17.4672 3.41251 17.146C3.57535 17.1001 3.75121 17.0608 3.89451 16.9756C4.5654 16.5888 5.24934 16.2087 5.89418 15.776C6.37619 15.4548 6.87772 15.2779 7.4444 15.1926C8.66244 15.0157 9.82837 14.6551 10.838 13.8948C10.9748 13.7899 11.1311 13.7047 11.2939 13.6522C12.4077 13.2983 13.5216 12.9574 14.6354 12.6166C14.8829 12.5445 15.1565 12.5379 15.391 12.433C15.9251 12.197 16.4787 12.1446 17.0454 12.2167C17.5795 12.2823 18.0876 12.2757 18.4198 11.7841C18.6933 12.0266 18.8627 12.2888 19.0711 12.3216C19.2861 12.3609 19.5401 12.197 19.7681 12.0856C19.9635 11.9938 20.1198 11.8037 20.3152 11.7513C20.5562 11.6858 20.8558 11.6399 21.0643 11.7382C21.2597 11.83 21.3639 12.1184 21.4942 12.3085C20.8559 13.0033 20.0156 13.1999 19.26 13.5342C18.9278 13.6785 18.4979 13.6785 18.1267 13.6326C17.6577 13.5736 17.2929 13.6916 16.9216 13.9603C16.609 14.1832 16.2573 14.4257 15.899 14.4847C15.2412 14.5961 14.668 14.8714 14.0752 15.1336C13.6453 15.3237 13.1894 15.4745 12.7334 15.5728C11.8932 15.7564 11.1767 16.2939 10.3039 16.3922C10.0629 16.4184 9.81536 16.5757 9.61344 16.733C8.6364 17.4672 7.56165 17.985 6.36966 18.2735C5.95279 18.3718 5.5685 18.5946 5.17117 18.7651C4.10295 19.2239 3.02822 19.6893 1.95999 20.1547C1.62129 20.3055 1.3021 20.3251 0.989447 20.0695C0.859175 19.9646 0.689848 19.9056 0.527009 19.8466C0.0710589 19.6762 -0.0527181 19.3485 0.0189312 18.811Z" fill="#89DC7C"/>
<path d="M14.0363 24.291C13.9386 24.055 13.8409 23.8124 13.7432 23.583C14.0949 23.0521 14.4141 22.5539 14.7398 22.0557C15.593 21.7214 15.821 20.7906 16.4463 20.2335C16.7981 19.9188 17.0781 19.519 17.4038 19.1716C17.7881 18.7652 18.1789 18.385 18.674 18.0769C19.1625 17.7688 19.664 17.369 19.9115 16.7856C19.9441 16.7069 19.9897 16.6283 20.0353 16.5562C20.4522 15.9531 20.856 15.9007 21.4487 16.3726C21.5139 16.4251 21.5986 16.4709 21.6442 16.543C21.9047 16.8839 22.1652 17.2313 22.4649 17.6377C21.9242 18.5095 21.3771 19.3617 20.5368 20.0171C19.7227 20.6595 18.9736 21.3871 18.1854 22.0754C17.8923 22.331 17.5927 22.5932 17.2605 22.7899C16.9414 22.98 16.6352 23.1832 16.1858 23.1307C15.8471 23.0914 15.4693 23.3405 15.0915 23.465C15.2218 23.6617 15.313 23.7928 15.4302 23.9763C15.0199 24.4155 14.6356 24.8743 14.1992 25.2807C13.9516 25.5167 13.6455 25.7003 13.3459 25.8772C13.0332 26.0608 12.701 26.0346 12.675 25.8248C12.6489 25.6347 12.6815 25.3725 12.7922 25.2414C13.0462 24.953 13.3654 24.7236 13.665 24.481C13.7627 24.4024 13.893 24.3499 14.0037 24.2844C13.9907 24.3565 13.9777 24.422 13.9647 24.4942C14.0103 24.4286 14.0233 24.3631 14.0363 24.291Z" fill="#89DC7C"/>
<path d="M27.3041 5.19659C26.8286 4.90817 26.3466 4.61976 25.8711 4.33134C25.7603 4.26579 25.6366 4.16746 25.5193 4.18057C24.8419 4.22646 24.2622 3.78728 23.6369 3.76761C22.5361 3.73484 21.5265 3.33499 20.4583 3.19078C19.6376 3.07935 18.8299 3.02691 18.0092 3.0138C17.2862 3.00069 16.5697 3.05969 15.8597 2.69261C15.3973 2.45008 14.772 2.53529 14.2183 2.45007C13.7949 2.38452 13.3715 2.29276 12.9807 2.22065C12.6616 1.51272 12.3685 0.857229 12.0884 0.221402C12.4531 -0.112899 12.7918 0.0181977 13.1306 0.0640821C14.2769 0.227955 15.4298 0.385275 16.5762 0.549148C17.0452 0.614697 17.5142 0.70647 17.9766 0.791684C18.615 0.909673 19.2533 1.01455 19.8851 1.1522C20.5625 1.29641 21.2334 1.42095 21.8522 1.78148C22.2561 2.01745 22.7315 2.14199 23.1875 2.2862C24.399 2.66639 25.4868 3.30221 26.555 3.96426C26.809 4.12158 27.0566 4.32479 27.2259 4.56076C27.3301 4.70497 27.278 4.96061 27.2976 5.17037L27.3041 5.19659Z" fill="#89DC7C"/>
<path d="M14.0358 24.291C14.0228 24.3565 14.0033 24.4221 13.9902 24.4942C14.0033 24.4221 14.0163 24.3565 14.0293 24.2844L14.0358 24.291Z" fill="#89DC7C"/>
</svg>
