<svg width="15" height="18" viewBox="0 0 15 18" fill="none" xmlns="http://www.w3.org/2000/svg">
<path d="M8.82289 2.8832C9.4583 2.31713 9.93751 1.82444 10.4792 1.41561C11.0833 0.96485 11.7083 0.503587 12.3958 0.189103C13.1875 -0.188277 13.7083 0.0109162 14.2188 0.681815C14.3854 0.901953 14.5312 1.14304 14.6666 1.39462C14.7916 1.63573 14.875 1.89779 15 2.22275C13.9792 3.97338 12.1875 5.10556 11.2187 6.87715C10.2812 8.58585 9.23957 10.2526 8.42707 12.0242C7.60416 13.8377 7 15.7665 6.25 17.8002C6.04167 17.6115 5.78122 17.4752 5.69789 17.2761C5.10414 15.9133 4.79166 14.5086 5.04166 12.9991C5.26041 11.6154 5.4375 10.2421 5.98958 8.94223C6.19792 8.42858 6.34372 7.88349 6.42705 7.33839C6.4583 7.11825 6.28125 6.86664 6.19792 6.63602C5.40625 6.75133 5.23955 7.30693 5.0208 7.79962C3.96872 10.1478 2.86456 12.4854 2.58331 15.1061C2.5104 15.777 2.23956 16.4269 2.0104 17.2761C1.53123 17.014 1.125 16.9091 0.885417 16.6366C0.166667 15.8084 0 14.7602 0 13.691C0 12.6532 1.017e-05 11.6049 0.0625102 10.5671C0.0833435 10.2526 0.31251 9.94859 0.427094 9.63411C0.541677 9.33011 0.68748 9.01563 0.708313 8.70115C0.927063 5.54583 3.34376 2.14942 5.58334 1.11162C6.57293 0.650377 7.10417 0.713243 7.8125 1.49945C8.11458 1.82442 8.36455 2.24375 8.82289 2.8832Z" fill="#89DC7C"/>
</svg>
