<svg width="39" height="22" viewBox="0 0 39 22" fill="none" xmlns="http://www.w3.org/2000/svg">
<path d="M0.767334 11.3334C1.09154 11.1314 1.33085 10.9449 1.59331 10.8362C2.97505 10.2613 4.42626 9.91178 5.86204 9.53113C7.00448 9.22817 8.13151 8.85529 9.27396 8.54456C10.6171 8.18722 11.9602 7.82989 13.3111 7.54246C15.5728 7.06083 17.8346 6.58697 20.1581 6.45491C20.3125 6.44714 20.4746 6.44714 20.6212 6.40829C22.9216 5.78683 25.2991 5.70139 27.6458 5.4295C29.3208 5.23529 31.0036 5.02555 32.7096 5.09547C34.1917 5.14985 35.6815 4.96341 37.1636 4.87019C37.7888 4.83135 38.3755 4.90126 38.885 5.25083C38.8695 5.41397 38.885 5.5771 38.8387 5.6004C38.1671 5.96551 37.5495 6.43937 36.8934 6.80448C36.2527 7.15405 35.4268 7.21619 34.678 7.25503C34.2226 7.27834 33.7826 7.20066 33.3349 7.4104C33.1419 7.50362 32.8562 7.3871 32.6092 7.36379C31.8527 7.27057 31.104 7.18512 30.3552 7.48032C29.4443 7.83765 28.5026 8.08624 27.5686 7.64345C27.2907 8.03963 27.1594 8.43581 26.6268 8.43581C26.2331 8.43581 25.8394 8.61447 25.438 8.69993C25.2914 8.731 25.083 8.80091 25.0058 8.731C24.5658 8.32705 24.1412 8.60671 23.7012 8.69216C23.1454 8.80091 22.5896 8.90967 22.0339 8.97181C21.4626 9.03396 20.9455 9.20486 20.4283 9.47675C19.6486 9.8807 18.8226 10.1215 17.9041 9.97392C17.5876 9.92731 17.2171 10.0827 16.8851 10.1992C15.1869 10.7818 13.5041 11.3955 11.6824 11.4577C11.4817 11.4654 11.2501 11.4732 11.0803 11.5586C10.1076 12.0869 8.99608 12.1024 7.97714 12.4209C6.90416 12.755 5.88519 13.2521 4.81994 13.625C4.29503 13.8114 3.73154 13.9202 3.17575 13.9901C2.73576 14.0445 2.3884 13.827 2.21857 13.3686C2.07191 12.9802 1.96382 12.5685 1.73224 12.2345C1.50066 11.9082 1.14558 11.6829 0.767334 11.3334ZM36.4766 5.90336C36.3994 6.05095 36.3376 6.17525 36.2759 6.29955C36.3531 6.33839 36.438 6.4083 36.5152 6.40053C36.5924 6.38499 36.6773 6.30731 36.7236 6.2374C36.7313 6.20632 36.631 6.1131 36.4766 5.90336Z" fill="#89DC7C"/>
<path d="M6.39478 18.69C6.97372 18.1617 7.49862 18.1695 8.00809 18.2316C10.4551 18.5346 12.8866 18.9308 15.3336 19.156C16.8852 19.2959 18.3519 19.7464 19.8725 20.0106C21.0536 20.2125 21.3161 20.3524 22.2887 21.1059C22.0957 21.2146 21.9413 21.37 21.7715 21.3933C21.3624 21.4477 20.9533 21.4632 20.5441 21.4399C19.9652 21.4088 19.4171 21.4477 18.9154 21.7662C18.2129 22.2167 17.5336 21.9293 16.8775 21.6263C16.7694 21.5797 16.7308 21.3855 16.6073 21.168C16.4143 21.4088 16.2677 21.5953 16.1364 21.7584C15.5652 21.8206 15.0172 21.9138 14.4614 21.9371C13.6895 21.9681 12.9252 21.9371 12.1533 21.9371C10.9105 21.9448 9.77578 21.4787 8.61018 21.1214C7.92316 20.9117 7.44458 20.5077 7.07405 19.9251C6.82704 19.5445 6.63407 19.1327 6.39478 18.69Z" fill="#89DC7C"/>
<path d="M16.0669 0.294924C16.0129 0.737714 15.7891 1.07952 15.4185 1.29703C15.0634 1.50677 14.7006 1.72428 14.3147 1.83304C13.342 2.09716 12.5933 2.64093 11.8368 3.31677C10.9337 4.12467 9.81436 4.66845 8.74139 5.32875C7.96174 4.55193 7.36734 3.73626 6.67261 2.88175C6.9891 2.60986 7.1898 2.35351 7.44453 2.24475C7.82277 2.08939 8.23189 1.99617 8.64101 1.97286C9.62136 1.91848 10.3856 1.59222 10.9645 0.714411C11.2964 0.209475 11.8368 -0.140094 12.5547 0.318232C12.794 0.465829 13.2726 0.380376 13.5736 0.248316C14.4459 -0.12456 15.2719 -0.0624156 16.0978 0.333765L16.0669 0.294924ZM14.5771 1.04067C14.6389 1.09505 14.7161 1.2038 14.7701 1.2038C14.8473 1.19604 14.9168 1.09505 14.9862 1.04067C14.9245 0.978527 14.8473 0.869774 14.7933 0.877542C14.7161 0.88531 14.6466 0.978527 14.5771 1.04067Z" fill="#89DC7C"/>
<path d="M16.1056 0.333746C16.1365 0.240527 16.1596 0.139538 16.2137 0.0696241C16.2368 0.0385511 16.3449 0.0618577 16.4144 0.0618577C16.3912 0.100699 16.3681 0.155077 16.3372 0.178381C16.2523 0.224991 16.1597 0.256064 16.0748 0.294905C16.067 0.294905 16.1056 0.333746 16.1056 0.333746Z" fill="#89DC7C"/>
<path d="M14.5771 1.04065C14.6543 0.978506 14.7161 0.877523 14.801 0.869755C14.855 0.861987 14.9245 0.978508 14.994 1.03289C14.9245 1.09503 14.855 1.18825 14.7778 1.19602C14.7083 1.21155 14.6389 1.1028 14.5771 1.04065Z" fill="#89DC7C"/>
</svg>
