<svg width="29" height="27" viewBox="0 0 29 27" fill="none" xmlns="http://www.w3.org/2000/svg">
<path d="M16.6623 4.12621C17.1128 4.47255 17.9667 4.93263 18.5396 5.6219C20.3914 7.82113 22.2379 10.0349 23.8697 12.3862C25.2099 14.3163 25.44 16.6714 25.0311 18.9264C24.7335 20.5588 23.583 21.8642 21.993 22.6118C21.0986 23.0323 19.958 22.3187 20.045 21.3556C20.1077 20.5495 20.25 19.7061 20.5707 18.9608C21.3545 17.124 20.985 15.514 19.7773 14.0797C18.9299 13.0585 17.9925 12.1039 17.0244 11.1879C15.503 9.75546 14.3117 8.09507 13.689 6.09452C13.5327 5.57344 13.5397 4.82992 13.7936 4.35867C14.1671 3.64913 15.0035 3.70487 15.7352 3.82196C15.9456 3.83224 16.1386 3.9356 16.6623 4.12621Z" fill="#89DC7C"/>
<path d="M14.6458 23.8334C12.0059 22.4416 11.7789 22.1599 12.2605 19.9314C12.6338 18.227 12.3859 16.6447 11.8589 15.0603C11.5303 14.0621 11.0108 13.2264 10.1029 12.5976C8.30184 11.3452 6.83908 9.7518 5.79797 7.8145C5.51464 7.28034 5.30693 6.67421 5.19183 6.08523C5.01651 5.20907 5.76479 4.42047 6.64868 4.52665C7.24941 4.5961 7.88699 4.74525 8.39714 5.06356C12.4716 7.67387 15.1685 11.308 16.15 16.1248C16.5478 18.1098 16.4228 20.0372 15.3849 21.8478C15.0753 22.3816 14.9495 22.999 14.6458 23.8334Z" fill="#89DC7C"/>
</svg>
