<svg width="11" height="12" viewBox="0 0 11 12" fill="none" xmlns="http://www.w3.org/2000/svg">
<path d="M3.87492 0.541504V1.62484H7.12492V0.541504H8.20825V1.62484H10.3749C10.6741 1.62484 10.9166 1.86735 10.9166 2.1665V10.8332C10.9166 11.1323 10.6741 11.3748 10.3749 11.3748H0.624919C0.325767 11.3748 0.083252 11.1323 0.083252 10.8332V2.1665C0.083252 1.86735 0.325767 1.62484 0.624919 1.62484H2.79158V0.541504H3.87492ZM9.83325 5.95817H1.16659V10.2915H9.83325V5.95817ZM2.79158 2.70817H1.16659V4.87484H9.83325V2.70817H8.20825V3.7915H7.12492V2.70817H3.87492V3.7915H2.79158V2.70817Z" fill="#2E2E2E"/>
</svg>
