<svg width="15" height="5" viewBox="0 0 15 5" fill="none" xmlns="http://www.w3.org/2000/svg">
<path d="M1.95833 0.916504C1.0875 0.916504 0.375 1.629 0.375 2.49984C0.375 3.37067 1.0875 4.08317 1.95833 4.08317C2.82917 4.08317 3.54167 3.37067 3.54167 2.49984C3.54167 1.629 2.82917 0.916504 1.95833 0.916504ZM13.0417 0.916504C12.1708 0.916504 11.4583 1.629 11.4583 2.49984C11.4583 3.37067 12.1708 4.08317 13.0417 4.08317C13.9125 4.08317 14.625 3.37067 14.625 2.49984C14.625 1.629 13.9125 0.916504 13.0417 0.916504ZM7.5 0.916504C6.62917 0.916504 5.91667 1.629 5.91667 2.49984C5.91667 3.37067 6.62917 4.08317 7.5 4.08317C8.37083 4.08317 9.08333 3.37067 9.08333 2.49984C9.08333 1.629 8.37083 0.916504 7.5 0.916504Z" fill="white"/>
</svg>
