<svg width="36" height="35" viewBox="0 0 36 35" fill="none" xmlns="http://www.w3.org/2000/svg">
<path d="M17.6018 0.5C27.0497 0.5 34.7037 8.11389 34.7037 17.5C34.7037 26.8861 27.0497 34.5 17.6018 34.5C8.15402 34.5 0.5 26.8861 0.5 17.5C0.5 8.11389 8.15402 0.5 17.6018 0.5Z" fill="#F3F3F3" stroke="#3A3A3A"/>
<path d="M17.5369 21.1037L11.3635 14.966C10.5936 14.2006 9.34537 14.2006 8.57549 14.966C7.8056 15.7314 7.8056 16.9724 8.57549 17.7379L14.7489 23.8756C15.5188 24.641 16.767 24.641 17.5369 23.8756C18.3068 23.1101 18.3068 21.8691 17.5369 21.1037Z" fill="#3A3A3A"/>
<path d="M22.2715 20.1826C22.8201 19.6372 22.8201 18.753 22.2715 18.2077C21.723 17.6623 20.8336 17.6623 20.2851 18.2077C19.7366 18.753 19.7366 19.6372 20.2851 20.1826C20.8336 20.728 21.723 20.728 22.2715 20.1826Z" fill="#424242"/>
<path d="M27.2929 16.635C28.1178 15.8148 28.1178 14.4852 27.2929 13.6651C26.468 12.845 25.1306 12.845 24.3057 13.6651C23.4809 14.4852 23.4809 15.8148 24.3057 16.635C25.1306 17.4551 26.468 17.4551 27.2929 16.635Z" fill="#89DC7C"/>
</svg>
