<svg xmlns="http://www.w3.org/2000/svg" width="1968" height="636" fill="none"><path fill="#3A3A3A" d="M459.473 491.258c-.651 2.604-1.302 4.394-1.953 5.371-.326.651-.652 1.139-.977 1.465-1.302.976-2.441 1.465-3.418 1.465-.977 0-2.279.325-3.906.976-.977.326-2.116.488-3.418.488-.977-.325-2.116-.325-3.418 0l-3.906.977c-1.303.651-2.605.977-3.907.977a24.872 24.872 0 0 1-4.882.488c-1.628 0-3.418.163-5.372.488-2.604.326-5.371.651-8.3.977-2.605.651-5.371.976-8.301.976-2.604 1.302-4.883 1.953-6.836 1.953h-7.813c-.651-1.302-1.627-2.441-2.929-3.418-.977-.651-1.791-1.627-2.442-2.929.651-6.185 2.116-10.742 4.395-13.672-.651-2.604-.977-4.069-.977-4.395.326-.651.489-1.302.489-1.953v-5.859c0-2.279.325-4.557.976-6.836 1.628-6.511 2.279-12.37 1.953-17.578-.325-5.534-.325-10.58 0-15.137.977-3.255 1.302-5.534.977-6.836v-3.906c.325-1.302.814-2.442 1.465-3.418.651-1.302 1.139-2.442 1.465-3.418 0-1.628-.326-3.093-.977-4.395-.326-1.302.325-2.441 1.953-3.418-1.628-2.604-2.279-5.371-1.953-8.3.325-2.93.488-5.86.488-8.789 0-.977-.163-1.954-.488-2.93v-2.442c0-4.557.325-8.951.977-13.183.651-4.232.813-8.626.488-13.184-.326-1.627-.814-3.418-1.465-5.371a38.616 38.616 0 0 1-1.465-5.859c-.325-.651-.488-1.465-.488-2.442.325-.976.488-2.115.488-3.418-.325-.976-.651-1.79-.976-2.441a9.206 9.206 0 0 1-.489-2.93 12.344 12.344 0 0 1 0-4.882c.326-1.954.326-3.744 0-5.372 0-1.627-.325-3.092-.976-4.394a16.028 16.028 0 0 1-.489-3.906c0-1.628.163-2.93.489-3.907.651-1.302.813-2.604.488-3.906 0-1.302-.163-2.441-.488-3.418l-.977-2.929c0-3.581-.163-5.86-.488-6.836-.326-.977-.977-1.791-1.953-2.442-.651-.976-1.302-2.116-1.953-3.418-1.302-2.604-2.442-4.394-3.418-5.371a25.62 25.62 0 0 0-2.442-3.906l-2.929-4.883c-1.954-1.628-3.256-2.767-3.907-3.418-.325-.651-.488-1.139-.488-1.465-2.279 0-3.581-.163-3.906-.488-.326-.326-.814-.651-1.465-.977-2.93-.976-5.208-1.464-6.836-1.464-1.628-.326-2.93-.326-3.906 0-.651.325-1.791.651-3.418.976a16.028 16.028 0 0 1-3.907.488c-1.302 0-2.278.163-2.929.489-1.628.976-2.93 1.465-3.906 1.465-.977 0-1.791.162-2.442.488a19.133 19.133 0 0 0-4.394 2.441 51.388 51.388 0 0 1-4.395 2.93 36.726 36.726 0 0 1-3.906 3.418 25.69 25.69 0 0 0-3.906 2.441c-1.302 1.628-2.605 2.767-3.907 3.418-1.302.326-2.278.814-2.929 1.465-2.93 2.93-4.558 4.72-4.883 5.371-1.953 5.208-4.069 9.115-6.348 11.719a133.898 133.898 0 0 0-6.347 7.812c-1.954 2.605-3.256 4.883-3.907 6.836a97.591 97.591 0 0 1-1.953 5.371c-.976 2.605-1.79 4.232-2.441 4.883-.651.651-.977 1.14-.977 1.465-.651 2.279-1.465 4.069-2.441 5.371a13.034 13.034 0 0 0-2.442 3.418c-.325.977-.488 2.116-.488 3.418s-.163 2.279-.488 2.93c-1.628 2.929-2.604 5.045-2.93 6.347 0 1.303-.163 2.442-.488 3.418-1.302 3.581-2.279 5.86-2.93 6.836-.651.977-1.139 1.954-1.465 2.93-.325.651-.488 1.628-.488 2.93 0 .976-.163 1.79-.488 2.441-1.302 1.953-1.953 3.744-1.953 5.371 0 1.628-.814 2.767-2.442 3.418.326 3.906-.488 7.487-2.441 10.742-1.628 3.256-2.767 6.836-3.418 10.743 0 1.627.163 3.092.488 4.394a4.511 4.511 0 0 1 0 2.93c0 1.302-.163 2.604-.488 3.906v3.418l-.977 2.93c-.325.651-.651 1.465-.976 2.441-.326 1.628-.489 3.581-.489 5.86 0 1.953-.162 3.906-.488 5.859-.651 2.604-.814 4.232-.488 4.883.325.651.488 1.302.488 1.953-.325 2.278-.163 4.557.488 6.836.651 2.278.326 4.72-.976 7.324.651 1.628 1.302 3.581 1.953 5.859.977 2.279.488 4.232-1.465 5.86a31.976 31.976 0 0 0 1.953 3.418c.651.651 1.302 1.79 1.953 3.418.326 1.627.326 3.418 0 5.371 0 1.627.163 3.255.489 4.883.651 1.627 1.465 3.58 2.441 5.859.977 1.953 1.139 4.394.488 7.324-.651 2.279-1.953 3.744-3.906 4.395-1.627.651-3.255 1.79-4.883 3.418-1.627-.977-3.58-1.628-5.859-1.953-1.953 0-3.906-.489-5.859-1.465-3.256-1.302-5.86-1.953-7.813-1.953-1.953.325-4.232.488-6.836.488a95.575 95.575 0 0 1-4.394.976 16.036 16.036 0 0 1-3.907.489c-1.302 0-2.441-.326-3.418-.977a9.226 9.226 0 0 0-2.929-.488c-2.279-.326-4.232-.326-5.86 0-1.627.651-3.255.488-4.882-.488-2.605-2.605-3.581-6.674-2.93-12.207.976-5.86 2.441-10.092 4.394-12.696.326-3.255.489-6.673.489-10.254 0-3.58-.163-6.347-.489-8.3-.325-1.954 0-3.581.977-4.883.976-1.628 1.628-3.581 1.953-5.86 0-.976-.163-1.953-.488-2.929-.326-.977-.489-2.116-.489-3.418.326-3.907.652-9.278.977-16.114.326-6.836.651-13.509.977-20.019v-5.371c.325-1.953.651-4.069.976-6.348-.651-.976-.814-1.953-.488-2.93.651-.976 1.139-1.79 1.465-2.441 0-2.604-.326-5.046-.977-7.324-.325-2.279.488-4.557 2.442-6.836-1.303-2.279-1.954-3.744-1.954-4.395.326-.976.326-1.79 0-2.441l-1.953-3.906c-.651-2.279-.976-4.069-.976-5.371.325-1.628.325-2.767 0-3.418-.326-.977-.651-1.791-.977-2.442 0-2.929-.325-5.045-.976-6.347a46.683 46.683 0 0 0-.977-3.418c.651-3.256.651-6.674 0-10.254-.325-3.581-.976-6.185-1.953-7.813-.977-1.627-1.465-2.93-1.465-3.906.326-1.302.326-2.279 0-2.93-.651-1.627-1.302-2.929-1.953-3.906a58.14 58.14 0 0 1-1.953-4.395c-1.628-3.906-2.767-6.51-3.418-7.812-.326-1.628-.814-3.092-1.465-4.395-1.953-3.255-3.906-6.184-5.859-8.789a79.832 79.832 0 0 0-6.348-8.3 47.363 47.363 0 0 1-11.23-4.395 4.524 4.524 0 0 0-2.93 0c-.651.326-1.628.488-2.93.488-.651.326-1.627.326-2.93 0-.976-.651-1.79-.813-2.441-.488-3.255 1.302-5.859 2.279-7.812 2.93a97.64 97.64 0 0 0-5.372 1.953c-2.278 1.302-4.557 2.279-6.835 2.93l-5.86 1.953c-3.255 1.627-6.185 3.418-8.789 5.371-2.279 1.953-4.883 3.581-7.812 4.883-1.628 1.953-3.093 4.394-4.395 7.324-.976 2.604-2.93 4.394-5.859 5.371.651 1.302.651 2.604 0 3.906a19.113 19.113 0 0 1-1.465 3.906c-.977 2.605-1.628 4.558-1.953 5.86 0 .976-.163 2.116-.489 3.418-1.627 3.58-2.929 6.673-3.906 9.277-.651 2.279-1.79 3.744-3.418 4.395.326 2.278 0 4.069-.976 5.371l-1.954 3.906c.326 4.232-.162 7.975-1.464 11.23-.977 3.256-2.279 6.674-3.907 10.254-1.302 3.256-2.115 7.325-2.441 12.207 0 4.883-1.302 9.115-3.906 12.696-.326 1.627-.163 2.767.488 3.418.977.325 1.302 1.302.977 2.929.325 1.628 0 2.93-.977 3.907-.977.651-1.465 1.79-1.465 3.418 1.628 4.557 2.279 10.253 1.953 17.089-.325 6.836-1.79 12.37-4.394 16.602 1.627 1.628 2.279 3.255 1.953 4.883-.326 1.627-.488 3.906-.488 6.836.325 2.604.325 4.557 0 5.859-.326.977-.326 1.79 0 2.442 0 .976.162 1.953.488 2.929l.977 2.93c-.651 3.906-.977 7.487-.977 10.742 0 3.255.163 6.185.488 8.789.326 3.906 1.14 7.813 2.442 11.719 1.627 3.581 1.627 7.161 0 10.742-3.581 2.279-7.162 3.418-10.743 3.418-3.58.326-7.486.163-11.718-.488-3.907-.326-8.138-.814-12.696-1.465-4.231-.651-8.626-.977-13.183-.977-3.58-5.859-5.209-10.091-4.883-12.695 0-1.628.325-2.93.977-3.906.65-1.302 1.139-2.767 1.464-4.395-.325-5.859-.325-11.067 0-15.625.326-4.883.489-9.603.489-14.16v-6.348c0-2.278.325-4.72.976-7.324-1.627-3.581-1.953-7.324-.976-11.23.976-3.906.813-7.65-.489-11.231 1.628-4.557 2.116-9.277 1.465-14.16-.65-4.883-.163-10.091 1.465-15.625-1.628-5.534-2.604-9.928-2.93-13.183v-10.254c.651-3.907.814-6.674.489-8.301a170.3 170.3 0 0 0-.977-5.371v-4.883c.326-1.628.488-3.255.488-4.883a95.524 95.524 0 0 0-.976-4.394c0-1.302-.163-2.605-.489-3.907-.976-4.231-1.464-8.951-1.464-14.16.65-2.93.813-4.883.488-5.859-.326-.977-.651-1.791-.977-2.442-.325-.976-.488-2.115-.488-3.418V294.48c.326-1.627.488-3.418.488-5.371 0-1.953-.325-3.58-.976-4.882-.326-1.303-.326-2.279 0-2.93.325-.651.163-1.79-.488-3.418 0-1.628-.326-2.767-.977-3.418-.326-.977-.163-1.953.488-2.93 0-.976.163-1.953.489-2.929a4.518 4.518 0 0 0 0-2.93c0-1.628-.326-3.093-.977-4.395-.651-1.302-1.14-2.767-1.465-4.394.326-1.302.814-2.279 1.465-2.93.651-.651 1.14-1.465 1.465-2.441-.977-2.93-1.14-6.022-.488-9.278a94.574 94.574 0 0 1 2.441-10.254 97.89 97.89 0 0 1 1.953-5.371c.977-1.953 1.953-3.255 2.93-3.906 2.604-1.953 5.534-1.953 8.789 0a226.122 226.122 0 0 0 9.277 4.395c5.209-.651 10.742-.814 16.602-.489 6.185 0 12.044-.162 17.578-.488a180.927 180.927 0 0 1 3.418 4.395c.976.976 1.79 2.278 2.441 3.906 0 2.604-.163 4.883-.488 6.836-.326 1.627 0 3.418.976 5.371 1.954.651 3.418.488 4.395-.488a19.085 19.085 0 0 1 4.395-2.442c2.604-1.627 4.557-3.092 5.859-4.394 1.628-1.628 3.581-2.604 5.859-2.93.651-.977 1.465-1.628 2.442-1.953a8.72 8.72 0 0 0 2.441-2.442c1.628-.325 3.744-1.139 6.348-2.441 2.278-1.628 3.581-2.441 3.906-2.441.651-.326 1.302-.489 1.953-.489l1.953-1.953c.651-.976 1.302-1.627 1.953-1.953.651-.325 1.465-.488 2.442-.488a46.973 46.973 0 0 0 3.418-.977c4.232-1.627 7.487-2.767 9.765-3.418 2.279-.976 4.232-1.465 5.86-1.465 2.604-.325 5.045 0 7.324.977 2.604.977 5.371.814 8.301-.488 4.557.651 8.626 1.302 12.207 1.953 3.581.325 6.185 1.302 7.812 2.93 3.256-1.628 5.86-2.279 7.813-1.954 1.627 0 3.255.977 4.883 2.93 1.953 1.953 3.58 3.255 4.882 3.906 1.303.651 2.767 1.14 4.395 1.465 1.628 0 3.255.326 4.883.977 1.627 1.627 2.767 2.604 3.418 2.929.651 0 .976.163.976.489 1.953.976 4.558 2.604 7.813 4.883 3.255 2.278 5.208 4.394 5.859 6.347.977 1.628 1.465 3.418 1.465 5.371.326 1.953.814 3.744 1.465 5.371.651.977 1.139 1.791 1.465 2.442.651.651 1.302 1.465 1.953 2.441 1.953 4.558 3.255 7.813 3.906 9.766a34.17 34.17 0 0 1 2.442 4.883c3.255-.651 5.533-1.953 6.835-3.907 1.628-1.953 3.093-4.231 4.395-6.836a13.03 13.03 0 0 0 3.418-2.441c1.302-.977 1.953-2.279 1.953-3.906 1.628 0 2.93-.326 3.906-.977.977-.976 1.791-1.953 2.442-2.929.976-.977 1.953-1.791 2.929-2.442.977-.976 2.442-1.465 4.395-1.465 0-1.302.488-2.116 1.465-2.441.976-.326 1.465-1.302 1.465-2.93 3.255-1.627 6.185-3.418 8.789-5.371 2.604-2.279 5.534-4.232 8.789-5.859 1.627-.977 3.581-1.953 5.859-2.93a31.729 31.729 0 0 0 7.324-3.906c3.581.651 7.162.651 10.743 0 3.58-.651 7.324-1.302 11.23-1.953 3.906-.326 7.65-.489 11.23-.489 3.907 0 7.65-.162 11.231-.488h11.23a47.207 47.207 0 0 1 11.719.488c1.302.326 2.604.814 3.906 1.465l3.907.977c1.627.651 3.092.976 4.394.976 1.628 0 3.093.326 4.395.977.976.325 1.953.814 2.929 1.465 1.303.651 2.279 1.302 2.93 1.953l2.93 1.465c.976.325 2.116.651 3.418.976.651 1.302 1.953 2.93 3.906 4.883 1.953.977 3.092 1.953 3.418 2.93.326.651.651 1.139.977 1.465a59.539 59.539 0 0 1 4.882 4.394c1.628 1.302 3.256 2.279 4.883 2.93.977 2.93 2.279 4.72 3.906 5.371.651 2.604 1.628 5.208 2.93 7.812a28.746 28.746 0 0 1 2.93 7.325c.976 2.604 1.465 5.208 1.465 7.812 0 2.279.325 4.72.976 7.324.977 3.907 1.628 7.162 1.953 9.766l1.953 6.836c.652 2.93.977 5.697.977 8.301.326 2.278.163 5.045-.488 8.301.976 1.627 1.627 3.58 1.953 5.859.325 2.279 1.139 4.069 2.441 5.371-.651 3.255-.976 6.999-.976 11.23 0 2.605.325 5.372.976 8.301.651 2.604.163 4.72-1.465 6.348 3.581 4.557 5.046 10.091 4.395 16.601-.651 6.185-.814 13.021-.488 20.508.325 1.953.651 3.744.976 5.371.326 1.628.489 3.256.489 4.883a59.93 59.93 0 0 1-.977 10.742c-.651 3.256-.977 5.86-.977 7.813.326 3.581.163 6.185-.488 7.812-.325 1.628-.488 2.93-.488 3.907 0 1.302.163 2.604.488 3.906.326.976.651 2.116.977 3.418-.651 3.255-.814 5.534-.489 6.836a4.508 4.508 0 0 1 0 2.929c0 1.303-.325 2.605-.976 3.907a9.198 9.198 0 0 0-.488 2.929c.325 3.581.488 6.023.488 7.325v2.441c0 .977.163 2.279.488 3.906.651 1.302.977 2.442.977 3.418.325 2.279.325 4.232 0 5.86-.326 1.302-.163 2.767.488 4.394.651 1.302 1.302 2.279 1.953 2.93.651.325.977 1.465.977 3.418Zm339.355-258.789c0 .976-.488 2.278-1.465 3.906-.651 1.628-.976 3.092-.976 4.395.325 2.278.325 3.743 0 4.394v1.953c.325 1.628.325 2.767 0 3.418-.326.651-.326 1.302 0 1.953.325 1.953.162 3.418-.489 4.395-.325.976-.488 1.79-.488 2.441-.325.977-.325 2.116 0 3.418.326.977.488 1.953.488 2.93-.651 2.604-1.139 4.72-1.464 6.348 0 1.302-.163 2.278-.489 2.929 0 1.628-.162 3.418-.488 5.371 0 1.953.163 4.069.488 6.348 0 .651.163 1.465.489 2.441.651.977.976 1.953.976 2.93.326 3.581.163 7.324-.488 11.231-.326 3.906-.326 7.649 0 11.23 0 1.628.163 3.092.488 4.395.326 1.302.326 2.766 0 4.394 0 2.279-.325 4.395-.976 6.348-.651 1.953-1.14 4.231-1.465 6.836.325 1.953.325 4.231 0 6.836-.326 2.278 0 4.231.976 5.859-.651 2.279-1.465 4.232-2.441 5.859.651 4.558.488 8.952-.488 13.184-.651 4.232-.977 8.626-.977 13.184l.977 4.882c.325 1.302.488 2.767.488 4.395 0 .651-.163 1.465-.488 2.441a9.206 9.206 0 0 0-.489 2.93c.651 2.93.651 5.046 0 6.348-.325 1.302-.651 2.278-.976 2.929-.326 3.581-.489 6.511-.489 8.789 0 1.953-.813 4.232-2.441 6.836-.976 1.628-1.139 4.232-.488 7.813.651 3.255.163 6.022-1.465 8.301.651 1.953.814 3.743.488 5.371v6.347c.326 4.558.163 7.813-.488 9.766a24.806 24.806 0 0 0-.488 4.883c-.326 3.906-.163 7.65.488 11.23a101.2 101.2 0 0 1 1.465 9.766c-1.302 3.255-.977 6.022.976 8.301 1.953 2.278 2.93 4.72 2.93 7.324-.651 1.627-1.139 2.93-1.465 3.906-.325 1.302-.488 2.116-.488 2.442a58.14 58.14 0 0 0-4.395 1.953c-1.302.976-2.604 1.627-3.906 1.953a9.21 9.21 0 0 1-2.93-.489c-.976-.325-2.115-.488-3.417-.488-1.303-.325-2.93-.325-4.883 0-1.628.651-3.256.977-4.883.977-1.628.325-3.581.325-5.86 0-1.953 0-3.743.325-5.371.976-1.953.326-3.906.977-5.859 1.953-1.628.977-3.255 1.465-4.883 1.465-2.278 2.279-4.232 3.256-5.859 2.93-1.628 0-2.767.163-3.418.488-1.953-1.627-3.581-4.231-4.883-7.812-1.302-3.581-.977-6.348.977-8.301-1.628-4.232-1.954-8.952-.977-14.16a42.014 42.014 0 0 0 0-15.625 31.653 31.653 0 0 0-7.324 3.906 88.166 88.166 0 0 0-5.86 5.371c-.976.651-1.79 1.628-2.441 2.93-.651.976-1.628 1.79-2.93 2.441a58.286 58.286 0 0 1-4.394 1.953c-1.628.651-2.767 1.465-3.418 2.442-1.628.651-3.418.976-5.371.976-1.628 0-3.255.326-4.883.977l-6.836 1.953c-2.279.326-4.883.814-7.812 1.465-1.954.651-4.558 1.465-7.813 2.441-3.255.977-6.673 1.14-10.254.489-2.604-.651-4.394-.651-5.371 0-.651.325-1.465.488-2.441.488-2.605.651-5.371.325-8.301-.977-.651 1.302-2.279 1.628-4.883.977-2.279-.651-4.069-1.302-5.371-1.953-2.604.976-5.046 1.139-7.324.488-2.279-.651-4.72-1.139-7.324-1.465-1.628 0-2.605-.488-2.93-1.465 0-.976-.651-1.627-1.953-1.953-7.162.326-14.812-.488-22.95-2.441a6.387 6.387 0 0 0-2.929-2.93c-.977-.651-1.628-1.79-1.953-3.418-1.628.326-2.767 0-3.418-.976-.326-.977-1.302-1.465-2.93-1.465-.651-1.628-1.628-2.767-2.93-3.418-.976-.977-1.79-1.953-2.441-2.93-1.628 0-2.93-.325-3.906-.976-.651-.652-1.791-.977-3.418-.977-1.953-2.604-3.093-4.069-3.418-4.395l-.977-.976c-1.627-1.302-2.93-1.953-3.906-1.953-.651 0-1.139-.163-1.465-.489l-3.906-3.906c-.977-.976-1.953-2.116-2.93-3.418-1.953-2.604-3.581-4.232-4.883-4.883-1.302-.976-1.79-2.604-1.465-4.882l-5.859-3.907-1.953-2.929c-1.302-1.628-2.116-3.256-2.441-4.883-.326-1.628-1.14-2.767-2.442-3.418-2.278-3.581-4.069-6.348-5.371-8.301-1.302-2.279-3.092-3.743-5.371-4.394.651-1.628.651-2.605 0-2.93-.651-.326-.814-1.139-.488-2.442-2.604-2.278-4.558-5.045-5.86-8.3a94.713 94.713 0 0 1-3.418-10.254 177.08 177.08 0 0 1-2.441-11.231 63.192 63.192 0 0 0-2.93-11.23c.326-4.557.489-9.277.489-14.16 0-5.209.813-9.766 2.441-13.672.976-2.279 1.465-4.232 1.465-5.86 0-1.627.163-3.255.488-4.882.326-1.628.488-3.093.488-4.395l.977-4.883c.976-5.208 1.79-9.114 2.441-11.718.977-2.605 2.279-4.883 3.907-6.836-.651-2.279-.651-4.232 0-5.86.651-1.953 1.464-3.58 2.441-4.883l2.93-4.882c.976-1.628 1.465-3.418 1.465-5.371 1.627-1.303 2.766-2.767 3.417-4.395a30.191 30.191 0 0 1 3.418-5.371 66.277 66.277 0 0 1 2.442-4.395l2.93-4.882c.651-.977 1.464-1.954 2.441-2.93 1.302-.977 1.79-2.279 1.465-3.906.976-.651 1.79-1.302 2.441-1.954.651-.651 1.791-1.302 3.418-1.953 2.604-3.906 4.72-7.324 6.348-10.254 1.627-3.255 3.581-6.184 5.859-8.789 1.302-1.302 2.442-2.278 3.418-2.929l3.906-2.93c.651-1.628 1.791-2.604 3.418-2.93 1.953-.651 3.093-1.79 3.418-3.418l9.766-1.953c3.255-.976 6.185-2.441 8.789-4.394a35.528 35.528 0 0 1 5.859-.489c2.279-.325 4.232-1.139 5.86-2.441 3.255.651 5.859.488 7.812-.488a76.643 76.643 0 0 0 5.371-3.906h14.649c4.883-.326 10.091-.326 15.625 0 2.604 0 5.045-.163 7.324-.489 2.604-.325 4.883-.325 6.836 0h4.394c1.303 0 2.442.489 3.418 1.465 2.93-1.302 5.697-1.139 8.301.488.651.326 1.465.489 2.442.489.976-.326 2.278-.163 3.906.488 3.255.976 5.371 1.465 6.348 1.465h2.929l4.883 2.441c.651.326 1.79 1.139 3.418 2.442 4.232 2.604 7.487 4.557 9.766 5.859a31.711 31.711 0 0 1 7.324 3.906c1.627 1.953 2.767 3.093 3.418 3.418.651.326 1.302.814 1.953 1.465.651.651 1.302 1.465 1.953 2.441l2.441 2.442c.652 1.302 1.628 2.441 2.93 3.418a36.614 36.614 0 0 1 3.906 3.418c.651.651 1.14 1.465 1.465 2.441a8.71 8.71 0 0 0 2.442 2.442l2.929 2.929c1.628.977 2.442 2.279 2.442 3.906 1.302-4.557 1.627-9.277.976-14.16-.651-5.208-1.627-9.603-2.929-13.183-.977-1.953-1.953-3.418-2.93-4.395-.977-1.302-.977-3.418 0-6.347.325-1.303.977-2.767 1.953-4.395 1.302-1.628 2.279-2.767 2.93-3.418 0 .326 1.139.651 3.418.977h5.859c1.628.325 2.93.651 3.906.976h3.907c3.58 0 7.975.163 13.183.488 5.209.326 9.603 1.14 13.184 2.442 2.604-.651 4.72-.488 6.347.488a97.64 97.64 0 0 0 5.372 1.953c.325 1.302.325 2.442 0 3.418 0 .651.162 1.628.488 2.93l.488 4.883Zm-70.801 117.187c-.651-.976-1.139-2.278-1.465-3.906v-5.371c-.651-.977-1.464-1.628-2.441-1.953l-1.953-1.953c0-2.605-.488-4.72-1.465-6.348a27.883 27.883 0 0 1-1.465-4.883c.651-2.604.489-4.394-.488-5.371a19.113 19.113 0 0 1-1.465-3.906c-.651-1.628-.976-3.255-.976-4.883 0-1.953-.163-3.906-.489-5.859-1.627-.977-2.604-1.953-2.929-2.93-.326-.977-.814-1.79-1.465-2.441l-5.86-5.86-3.906-3.906c-2.93-2.93-6.022-5.046-9.277-6.348-2.604-1.627-5.046-2.929-7.324-3.906a131.404 131.404 0 0 0-6.348-3.418c-1.953-.976-3.906-1.465-5.859-1.465-1.954 0-4.232-.325-6.836-.976-1.628-.651-2.93-1.14-3.907-1.465-.976-.651-1.953-1.14-2.929-1.465-.651 0-1.628.163-2.93.488-1.302 0-2.604-.163-3.906-.488-.977 0-2.116-.163-3.418-.488-.977-.651-1.791-.977-2.442-.977-3.255.651-5.696.651-7.324 0-1.627-.976-2.767-1.139-3.418-.488-3.255.325-5.534.976-6.836 1.953-.976.977-2.604 2.116-4.883 3.418-2.929 1.302-4.882 2.279-5.859 2.93l-1.953.976c-3.255 1.628-5.534 2.93-6.836 3.906a76.574 76.574 0 0 1-3.418 2.442c-2.279.976-3.581 1.79-3.906 2.441-.326.326-.814.489-1.465.489-.651.976-1.302 1.79-1.953 2.441-.651.651-1.302 1.465-1.953 2.441-1.953 1.628-3.581 3.093-4.883 4.395-1.302.976-2.279 1.79-2.93 2.441a18.988 18.988 0 0 1-6.836 4.395c-.325 3.581-1.465 6.347-3.418 8.301-1.953 1.627-2.929 4.231-2.929 7.812-1.302 1.628-2.279 3.255-2.93 4.883a58.286 58.286 0 0 0-1.953 4.394c-.651 1.954-1.14 4.069-1.465 6.348 0 1.953-.326 4.232-.977 6.836-.651 1.953-1.302 3.581-1.953 4.883s-1.139 2.767-1.465 4.394c.651 4.558.489 7.976-.488 10.254-.651 1.953-1.139 4.232-1.465 6.836 0 1.302.163 2.604.489 3.906.651 1.303.976 2.767.976 4.395 0 2.604-.163 4.557-.488 5.859-.326.977-.488 1.791-.488 2.442.325 2.278.976 4.394 1.953 6.347 1.302 1.954 1.627 4.232.976 6.836a107.97 107.97 0 0 1 6.348 4.883c1.953 1.628 4.232 3.093 6.836 4.395 2.278 3.906 5.045 7.161 8.301 9.765a235.061 235.061 0 0 1 9.277 7.813c2.93 3.255 6.185 5.534 9.766 6.836 2.929 1.627 5.208 2.767 6.836 3.418 1.953.325 3.743.651 5.371.976.976.326 2.116.814 3.418 1.465 1.627.326 2.767.651 3.418.977 5.533.651 10.579 1.627 15.136 2.929 4.558.977 8.627 1.465 12.207 1.465.977.326 2.116.489 3.418.489a47.335 47.335 0 0 0 3.418-.977h3.906c1.628 0 2.93-.163 3.907-.488 2.604-1.302 4.232-1.953 4.883-1.953.651 0 1.302-.163 1.953-.489.976-.325 2.116-.814 3.418-1.465 1.302-.651 2.604-.325 3.906.977.976-1.953 2.279-3.581 3.906-4.883a135.878 135.878 0 0 1 5.371-3.418 28.054 28.054 0 0 0 4.395-4.394c1.627-1.628 2.604-3.744 2.929-6.348 1.628-2.604 3.093-4.395 4.395-5.371a36.726 36.726 0 0 0 3.418-3.906c.651-.977 1.139-2.116 1.465-3.418.651-1.628 1.302-2.767 1.953-3.418 1.628-2.604 2.767-4.72 3.418-6.348.976-1.953 2.279-3.743 3.906-5.371-.651-1.628-.651-3.092 0-4.395a66.024 66.024 0 0 0 2.442-4.394c1.627-4.557 2.766-8.789 3.418-12.695.651-4.232.976-9.115.976-14.649 1.628-2.278 2.93-4.557 3.906-6.836Zm301.763-63.965c-1.96 2.279-3.26 3.418-3.91 3.418-.33 0-.81.326-1.47.977-3.9 2.279-6.02 3.255-6.34 2.93-2.61-.326-4.4-1.628-5.37-3.907-.98-2.278-2.77-4.069-5.38-5.371-1.62.651-3.25.814-4.88.489a12.302 12.302 0 0 0-4.881 0c-1.628.325-3.093.813-4.395 1.464a58.677 58.677 0 0 1-4.394 1.954c-4.558 1.627-7.65 2.929-9.278 3.906a34.266 34.266 0 0 0-4.883 2.441c-1.302 1.302-2.278 2.604-2.929 3.906-.651.977-1.791 2.279-3.418 3.907-1.953 1.627-4.232 3.255-6.836 4.883-2.279 1.302-4.232 2.766-5.86 4.394-.651.977-1.139 2.279-1.464 3.906-.326 1.302-.977 2.604-1.954 3.907-2.278 1.953-3.58 3.255-3.906 3.906-.325.651-.651 1.139-.976 1.465-.977 1.627-1.465 2.929-1.465 3.906.325.976.325 1.79 0 2.441-.326.651-.977 1.791-1.953 3.418-.977 1.302-1.14 2.93-.489 4.883-1.953 2.604-2.929 4.557-2.929 5.859 0 .977-.163 1.791-.489 2.442-1.627 1.627-2.604 3.092-2.929 4.394 0 .977-.326 1.953-.977 2.93-1.627 2.93-2.441 5.208-2.441 6.836a7.946 7.946 0 0 1 0 3.906c-.977 3.581-1.465 6.348-1.465 8.301 0 1.628-.163 3.255-.488 4.883a51.36 51.36 0 0 1-1.465 6.836c-.651 1.953-1.302 4.232-1.953 6.836-.326 1.627-.326 3.418 0 5.371.325 1.627.162 3.581-.489 5.859 0 .977-.325 1.953-.976 2.93-.326.976-.488 2.279-.488 3.906-.326 2.604-.163 5.046.488 7.324.651 2.279-.163 4.395-2.442 6.348.977 1.953 1.465 4.883 1.465 8.789.326 3.581-.325 6.185-1.953 7.813 1.302 3.58 1.79 7.487 1.465 11.718 0 4.232-.163 8.627-.488 13.184-.326 4.232-.651 8.626-.977 13.183 0 4.232.488 8.301 1.465 12.208.651 2.278 2.116 3.58 4.395 3.906 2.278 0 4.231.651 5.859 1.953 0 .976.325 1.953.976 2.93.977.651 1.791 1.79 2.442 3.418.325 2.278-.326 4.557-1.953 6.835-1.628 2.279-3.255 3.744-4.883 4.395-1.302.651-2.604.651-3.906 0-1.302-.325-3.256-.163-5.86.488-1.302.326-2.767.814-4.394 1.465a34.117 34.117 0 0 1-4.883 2.442c-2.604.976-5.697 1.79-9.277 2.441a127.32 127.32 0 0 1-10.743 2.441 24.798 24.798 0 0 1-4.882.489l-4.883.976-5.86 1.953c-1.953.977-3.743 1.302-5.371.977-3.255-.651-5.534-2.441-6.836-5.371-1.302-2.93-1.953-6.185-1.953-9.766 0-1.627.163-3.255.489-4.883.651-1.302.813-2.767.488-4.394 0-1.628-.326-3.093-.977-4.395l-.976-4.882a55.356 55.356 0 0 1-.489-12.696c.326-4.557.489-9.114.489-13.672 0-1.302.162-2.441.488-3.418.325-1.302.488-2.441.488-3.418a47.01 47.01 0 0 0-.976-3.418 16.028 16.028 0 0 1-.489-3.906c-.651-2.604-1.139-4.883-1.464-6.836-.326-1.953-.651-4.394-.977-7.324 0-.977-.163-2.116-.488-3.418v-3.418c0-2.279.162-4.232.488-5.859a38.628 38.628 0 0 0 1.465-5.86c-.651-3.58-.814-6.836-.488-9.765.651-2.93.976-5.534.976-7.813a38.498 38.498 0 0 0-1.465-5.859l-.976-5.86v-3.418c.325-1.627.488-2.604.488-2.929-.977-4.232-1.628-7.65-1.953-10.254 0-2.604-.163-4.72-.488-6.348-.326-3.581-.326-6.022 0-7.324a27.793 27.793 0 0 0 1.464-4.883c.651-3.255.651-6.51 0-9.765-.325-3.581-.325-6.999 0-10.254.326-2.605.814-5.046 1.465-7.325.977-2.278 1.465-4.72 1.465-7.324 0-.976-.163-1.953-.488-2.929v-3.418c0-.977.163-1.954.488-2.93.326-1.302.488-2.442.488-3.418-.325-.651-.651-1.465-.976-2.441-.326-1.303-.488-2.442-.488-3.418-.651-2.279-.651-4.395 0-6.348.651-2.279.976-4.72.976-7.324 0-1.628-.163-3.256-.488-4.883l-.977-4.883v-2.441c.326-1.302.326-2.279 0-2.93-.651-3.255-.814-5.859-.488-7.813.651-2.278.977-4.394.977-6.347 0-2.604-.163-5.046-.489-7.324-.325-2.279.163-4.72 1.465-7.325 0-1.627-.488-2.929-1.465-3.906a25.69 25.69 0 0 1-2.441-3.906c1.302-2.604 1.465-5.208.488-7.813a15.868 15.868 0 0 1 0-7.812c2.604-2.604 5.208-3.744 7.813-3.418 2.604 0 4.394.814 5.371 2.441a16.98 16.98 0 0 0 3.418 3.418c3.58.977 6.836 1.302 9.765.977 2.93-.651 6.185-.977 9.766-.977 1.953 0 3.743.163 5.371.489 1.953.325 3.744.488 5.371.488 2.604-.326 4.883-.977 6.836-1.953 2.279-1.302 5.371-1.302 9.277 0 1.303.651 1.954 1.627 1.954 2.929.325.977.976 2.279 1.953 3.907.325 2.604.651 4.231.976 4.882.326.326.489.814.489 1.465a328.576 328.576 0 0 1-1.954 8.301c-.651 2.604-.488 5.534.489 8.789 1.953 0 3.418-.488 4.394-1.465l3.906-3.906 1.954-1.953 2.441-2.441c2.604-2.279 4.395-4.07 5.371-5.372 1.302-1.302 2.441-2.278 3.418-2.929a13.034 13.034 0 0 1 3.418-2.442 6.387 6.387 0 0 0 2.93-2.929c2.929-.651 5.859-1.791 8.789-3.418 2.929-1.953 6.185-2.279 9.765-.977 1.628-1.628 4.069-2.93 7.325-3.906 3.58-1.302 6.347-.977 8.3.976 6.185 0 11.556-.976 16.114-2.929 4.56-1.953 8.79-2.442 12.69-1.465 1.63.325 2.77.976 3.42 1.953a32.52 32.52 0 0 0 3.42 1.953l2.93.977c1.3.325 2.44.813 3.42 1.465 2.28 3.58 2.93 7.487 1.95 11.718-.65 3.907-1.14 7.976-1.46 12.207.32 3.907.32 6.836 0 8.789-.33 1.953-.49 3.744-.49 5.371 0 3.581.16 7.325.49 11.231.32 3.581.49 7.324.49 11.23Zm286.62 229.493c0 2.278-.65 4.231-1.96 5.859-1.3 1.628-2.28 3.255-2.93 4.883-1.62.325-3.25.488-4.88.488-1.63.326-3.25.326-4.88 0-1.3 0-2.61-.325-3.91-.976-.97-.326-2.11-.814-3.42-1.465a96.738 96.738 0 0 1-4.39-.977c-.98 0-1.95-.488-2.93-1.465-1.95.977-3.74 1.302-5.37.977-1.63-.326-3.42-.163-5.37.488-.98.651-2.12 1.139-3.42 1.465-.98.325-1.95.814-2.93 1.465-1.63.325-2.77.814-3.42 1.465-.32.651-1.3.976-2.93.976-4.23 0-7.32-1.302-9.28-3.906-1.95-2.604-4.88-4.395-8.78-5.371a87.026 87.026 0 0 0-5.38-5.86c-1.95-1.627-4.23-3.255-6.83-4.882-.65-.651-1.14-1.465-1.47-2.442 0-.976-.32-1.79-.97-2.441-4.89-4.557-9.12-8.464-12.7-11.719-3.58-3.581-7-6.836-10.25-9.766a150.902 150.902 0 0 0-6.84-7.324c-1.95-2.278-3.9-5.045-5.86-8.301a12.82 12.82 0 0 0-3.42-2.441c-.97-.651-1.13-1.79-.48-3.418-1.63 0-2.93-.488-3.91-1.465-.65-1.302-1.63-2.441-2.93-3.418-1.63-1.953-3.09-3.255-4.39-3.906-1.31-.977-1.79-2.279-1.47-3.906-3.58-1.302-6.35-3.255-8.3-5.86-1.63-2.929-4.07-5.208-7.32-6.836-.33-1.302-.82-2.278-1.47-2.929-.32-.651-.81-1.791-1.46-3.418-1.63-.326-2.93-.977-3.91-1.953-.65-.977-2.12-1.628-4.39-1.953 0-1.628-.66-2.767-1.96-3.418-.97-.651-1.79-1.302-2.44-1.954-.65-.651-1.46-1.464-2.44-2.441-.98-.977-1.95-1.628-2.93-1.953-1.3.976-1.79 2.279-1.47 3.906.33 1.628.49 3.255.49 4.883-.65 4.232-.81 7.487-.49 9.766.33 2.278-.48 3.906-2.44 4.882.65 4.558 1.14 9.603 1.47 15.137.65 5.534.81 11.556.49 18.067-.65 2.929-.82 5.208-.49 6.835.65 1.303.97 2.442.97 3.418-.65 2.605-.81 4.395-.48 5.372.65.976.97 1.627.97 1.953 0 2.278.17 3.906.49 4.883.65.976.98 1.627.98 1.953 0 2.278.16 4.069.49 5.371.65.976 1.14 1.953 1.46 2.929-.65 1.628-1.46 2.767-2.44 3.418-.98.977-1.79 2.279-2.44 3.907 0 1.953.49 3.255 1.46 3.906.98.651 1.79 1.302 2.44 1.953 1.31 3.581 1.31 6.673 0 9.277-1.3 2.93-3.25 5.209-5.85 6.836-5.54 0-9.93-.976-13.19-2.929-3.25-1.954-6.83-3.581-10.74-4.883h-15.14c-4.55 0-9.44-.488-14.65-1.465-.65-1.628-1.46-3.093-2.44-4.395-.97-.976-1.14-2.767-.49-5.371.33-.976.33-1.953 0-2.929v-3.907c.66-2.278.66-3.906 0-4.882-.32-.651-.48-1.303-.48-1.954-.98-5.533-1.14-10.416-.49-14.648.65-4.557 1.3-9.603 1.95-15.137.33-3.58.33-6.185 0-7.812-.32-1.953-.65-3.744-.98-5.371v-4.883c.33-1.628.49-3.255.49-4.883-.32-1.953-.32-3.418 0-4.394.65-1.303.98-2.279.98-2.93 0-1.302-.33-2.604-.98-3.906-.65-1.302-1.14-2.767-1.46-4.395 0-1.302-.16-2.767-.49-4.394v-4.395c0-2.604-.16-5.046-.49-7.324v-7.324c0-3.907.16-8.464.49-13.672.33-5.209.33-10.254 0-15.137-.65-2.279-.98-3.906-.98-4.883.33-.976.49-1.953.49-2.93 0-1.953-.32-4.557-.98-7.812-.32-3.255.33-5.697 1.96-7.324.32-.977.16-1.953-.49-2.93a9.097 9.097 0 0 1-.49-2.93c-.32-1.302-.32-2.767 0-4.394.33-1.953.65-3.744.98-5.371 0-.977-.16-1.953-.49-2.93 0-1.302.16-2.441.49-3.418-.33-2.604-.16-4.72.49-6.348.65-1.627 1.14-3.58 1.46-5.859 0-1.628-.16-3.092-.49-4.394-.32-1.303-.49-2.767-.49-4.395 0-.977.17-2.116.49-3.418.33-1.302.49-2.441.49-3.418.65-3.255.98-5.859.98-7.812 0-1.628-.33-3.093-.98-4.395a25.272 25.272 0 0 1-.49-4.883c.65-2.604.98-4.557.98-5.859-.65-3.581-.98-6.022-.98-7.324v-3.418c-.32-.651-.81-1.465-1.46-2.442-.65-1.302-.98-2.604-.98-3.906.65-1.628.82-3.906.49-6.836 0-3.255-.33-5.208-.98-5.859V240.281c.33-1.953.49-3.255.49-3.906v-9.277c.33-3.256.49-6.511.49-9.766-.33-3.255-.98-6.348-1.95-9.277a49.778 49.778 0 0 1-.98-9.766c0-1.953.16-3.906.49-5.859.65-2.279 1.14-4.395 1.46-6.348 0-2.93-.32-4.883-.97-5.859-.33-1.302-.49-2.279-.49-2.93a15.837 15.837 0 0 1-.49-3.906v-4.883c-.33-1.628-.65-2.93-.98-3.906a16.32 16.32 0 0 1-.48-3.907c.65-2.929.81-5.371.48-7.324-.32-2.278-.16-4.232.49-5.859-.65-1.302-1.63-1.465-2.93-.488-.97.976-1.79.813-2.44-.489-1.63-4.232-1.95-6.998-.98-8.301 1.31-1.302 1.63-3.418.98-6.347 2.6-.651 5.05-1.14 7.32-1.465 2.61-.326 5.21.325 7.82 1.953a72 72 0 0 1 7.81-2.441c2.6-.977 5.7-1.14 9.28-.489l1.95-.976c.98-.326 1.95-.814 2.93-1.465 4.56.651 8.63 1.139 12.21 1.465h13.67a6.39 6.39 0 0 1 2.93 2.93 12.914 12.914 0 0 0 2.44 3.417c-.65 2.279-.81 4.395-.49 6.348.33 1.628.65 3.744.98 6.348.65 2.604.97 5.208.97 7.812-1.3 3.581-1.95 6.673-1.95 9.278v5.371c-.65 7.487-.81 13.672-.49 18.554.65 4.883 1.31 9.766 1.96 14.649.65 1.627.97 4.069.97 7.324.33 2.93.49 5.697.49 8.301 0 1.953-.32 3.906-.98 5.859a12.539 12.539 0 0 0 0 4.883c.33 3.255 1.14 6.51 2.45 9.766 1.62 3.255 1.62 6.185 0 8.789.97 2.278 1.95 5.045 2.93 8.301.97 3.255.65 6.184-.98 8.789 1.63 3.58 2.12 5.696 1.46 6.347-.32.326-.48.814-.48 1.465 1.62 1.953 2.11 4.883 1.46 8.789-.65 3.906-1.14 7.487-1.46 10.742.65 2.605.81 4.395.48 5.371-.32.651-.48 1.303-.48 1.954 0 1.627.32 3.418.97 5.371.98 1.627 1.14 3.418.49 5.371 2.28-.977 4.23-2.767 5.86-5.371 3.26-2.605 6.02-5.209 8.3-7.813 2.61-2.93 5.05-5.859 7.33-8.789 2.6-1.628 4.39-2.93 5.37-3.906 1.3-1.302 2.28-2.279 2.93-2.93 1.95-2.278 3.25-3.581 3.9-3.906.98-.326 1.79-.814 2.44-1.465.98-.651 1.63-1.139 1.96-1.465.65-.651 1.95-.976 3.9-.976 3.26-1.953 5.37-3.581 6.35-4.883 1.3-1.628 3.09-2.442 5.37-2.442.65-2.604 1.63-4.394 2.93-5.371 1.63-.976 2.77-2.441 3.42-4.394.65-.651 1.3-1.14 1.95-1.465.65-.651 1.63-.977 2.93-.977 1.3-1.627 2.93-3.418 4.89-5.371 2.27-1.953 4.55-4.231 6.83-6.836 2.61-2.604 4.4-4.557 5.37-5.859.98-1.628 2.12-2.93 3.42-3.906 2.28-1.628 3.58-2.767 3.91-3.418.32-.651.81-1.302 1.46-1.953 1.63-1.628 3.91-3.256 6.84-4.883 2.93-1.953 6.18-1.302 9.76 1.953 2.61-.651 5.37-.488 8.3.488 3.26.977 6.19 1.791 8.79 2.442 2.28.651 4.4 1.139 6.35 1.464 2.28.326 3.91 1.465 4.88 3.418 5.54-2.278 11.56-2.115 18.07.489.65 1.627 1.3 3.418 1.95 5.371.98 1.627 1.14 4.232.49 7.812-.98.651-1.95 1.628-2.93 2.93-.65.977-2.11 1.465-4.39 1.465-.98.651-1.79 1.627-2.44 2.93a8.827 8.827 0 0 1-2.45 2.441c-1.95.977-3.41 2.116-4.39 3.418-.98.976-1.95 1.953-2.93 2.93-.65.651-1.63 1.302-2.93 1.953-1.3.325-2.6.976-3.91 1.953l-3.9 3.906c-.33.651-.65 1.139-.98 1.465-1.63 1.953-2.93 3.092-3.91 3.418-.97 0-1.46.163-1.46.488-1.63 3.255-3.42 6.185-5.37 8.789-1.95 2.279-4.4 3.907-7.33 4.883a76.874 76.874 0 0 0-3.9 5.371c-1.3 1.628-2.77 2.93-4.4 3.906-.65.651-1.46 1.303-2.44 1.954-.97.325-1.79 1.302-2.44 2.929-2.93 3.581-5.7 6.022-8.3 7.324-2.28 1.303-3.91 3.256-4.88 5.86-2.28 2.604-4.56 4.394-6.84 5.371-1.95.976-3.74 2.279-5.37 3.906-1.63 3.581-3.91 6.511-6.84 8.789-2.93 2.279-5.53 4.72-7.81 7.324-3.58 1.303-5.53 2.767-5.86 4.395-.32 1.302-.97 2.767-1.95 4.395-.65.976-1.63 1.953-2.93 2.929-1.3.651-2.44 1.465-3.42 2.442a8.778 8.778 0 0 0-2.44 2.441c-.33.977-.98 1.79-1.95 2.441 1.3 3.907 3.25 6.999 5.86 9.278 2.6 2.278 4.72 5.208 6.34 8.789a62.157 62.157 0 0 0 9.28 6.836c3.26 1.953 6.51 4.394 9.77 7.324 2.6 1.302 4.88 2.93 6.83 4.883 1.31 1.302 2.28 2.767 2.93 4.394a22.916 22.916 0 0 0 3.42 4.395c.98 1.627 1.95 3.092 2.93 4.394 1.3.977 2.28 2.279 2.93 3.907 2.6 1.627 4.88 3.418 6.84 5.371 1.95 1.953 3.9 4.069 5.86 6.347 1.62 1.302 3.25 2.93 4.88 4.883 1.63 1.628 2.93 3.581 3.9 5.86 2.93 1.302 5.38 3.092 7.33 5.371a58.998 58.998 0 0 1 6.35 6.347c1.95 2.279 3.9 4.558 5.86 6.836 1.95 2.279 4.39 4.069 7.32 5.371.65 3.256 1.95 5.697 3.91 7.325a548.41 548.41 0 0 1 6.34 5.371c.33 2.278.98 4.394 1.96 6.347a27.314 27.314 0 0 1 2.44 5.371c3.58 2.279 6.02 4.558 7.32 6.836 1.3 1.954 3.1 3.256 5.37 3.907.33 2.278 1.47 3.906 3.42 4.882-.32 1.628-.49 2.767-.49 3.418.33.977.65 1.954.98 2.93.65 1.628 1.3 2.93 1.95 3.906.98.977 1.63 2.279 1.96 3.907Zm300.78-146.485c-.33 4.558-.33 7.65 0 9.278.32 1.627 0 3.418-.98 5.371-.65 1.302-1.95 2.278-3.91 2.929-1.62.651-2.76 1.628-3.41 2.93-1.96-.651-4.07-.814-6.35-.488-2.28 0-4.23.325-5.86.976-2.28-1.953-5.53-2.767-9.77-2.441-3.9.325-7.16-.488-9.76-2.442-1.95.977-3.75 1.465-5.37 1.465-4.56.651-9.44.489-14.65-.488-4.88-.977-9.93-1.79-15.14-2.441-3.58-.326-7.32-.489-11.23-.489h-10.25c-3.26.651-5.86.977-7.81.977-2.61-.326-5.05-.977-7.33-1.953-1.95-.977-4.23-1.465-6.83-1.465-1.96-.326-4.07-.163-6.35.488a35.63 35.63 0 0 1-5.86.489c-1.95 0-4.56-.326-7.81-.977-2.61.325-4.4.488-5.38.488-.97-.325-1.79-.488-2.44-.488-2.28 0-4.55.163-6.83.488-1.96.326-3.75-.488-5.37-2.441-1.31.976-2.45 1.627-3.42 1.953-.98.325-2.77.488-5.37.488-1.63-.325-2.93-.488-3.91-.488-.65-.326-1.3-.488-1.95-.488-2.28.651-4.23.813-5.86.488-1.3-.326-2.61.163-3.91 1.465-.65-.651-1.79-.814-3.42-.488-1.62 0-2.76-.326-3.41-.977-4.24-.651-7.65-.651-10.26 0-2.6.651-5.37.977-8.3.977-2.6 0-5.21-.326-7.81-.977-2.28-.651-5.21-.651-8.79 0-1.63 2.93-2.28 6.673-1.95 11.23.65 4.232 1.95 7.65 3.9 10.254.33 1.628.17 2.93-.49 3.907-.32.976-.48 2.278-.48 3.906 2.6 3.581 4.72 6.185 6.34 7.812 1.96 1.628 3.42 3.256 4.4 4.883a41.363 41.363 0 0 0 5.86 7.324c2.28 2.279 4.39 4.883 6.35 7.813.65 1.627 1.46 2.93 2.44 3.906 1.3.977 2.44 2.279 3.42 3.906 2.6.651 4.72 1.628 6.34 2.93 1.96 1.302 4.23 2.767 6.84 4.395 3.58 1.953 6.02 3.743 7.32 5.371 1.63 1.302 3.58 2.441 5.86 3.418 1.63.651 2.93.976 3.91.976a4.524 4.524 0 0 1 2.93 0c1.63.651 3.42 1.791 5.37 3.418 1.95 1.628 4.07 2.604 6.35 2.93 3.58-.326 6.18-.326 7.81 0 1.63 0 3.09.163 4.39.488 4.24.326 8.14-.651 11.72-2.93h3.91c.98 0 2.28-.162 3.91-.488 2.92-1.953 5.04-2.929 6.34-2.929 1.63 0 2.93-.326 3.91-.977.98-.977 1.79-1.465 2.44-1.465.98-.325 1.79-.651 2.44-.976 1.95-.652 3.58-1.465 4.88-2.442a44.43 44.43 0 0 0 4.89-3.418 44.317 44.317 0 0 0 6.35-4.394c3.25-1.954 6.02-4.72 8.3-8.301 2.6-3.581 5.37-6.673 8.3-9.277.32-3.907.97-7.162 1.95-9.766a31.743 31.743 0 0 1 3.91-7.324c0-3.581.32-6.348.97-8.301a39.794 39.794 0 0 1 3.42-6.348c1.63-.325 3.09-.651 4.4-.976 1.3-.326 2.92-.163 4.88.488.97.651 1.79 1.302 2.44 1.953.98.326 2.28.814 3.91 1.465.97.651 1.95 1.139 2.93 1.465 1.3 0 3.09.325 5.37.976 2.28.977 3.9 1.465 4.88 1.465s1.95.163 2.93.488c2.6 1.303 4.88 1.791 6.83 1.465 2.28-.325 4.24-.162 5.86.489 3.58 2.604 5.7 4.557 6.35 5.859 0 3.906-1.14 7.487-3.42 10.742-1.62 3.581-2.44 5.86-2.44 6.836.33.651.33 1.79 0 3.418-.32.977-.81 1.79-1.46 2.441-.65.651-1.14 1.628-1.47 2.93a38.01 38.01 0 0 0-1.46 5.859c-.33 1.628-.98 3.418-1.96 5.372-2.6 3.255-4.72 5.696-6.34 7.324-1.3 1.302-2.77 2.278-4.4 2.93.65 1.627.33 2.929-.97 3.906-1.31.651-2.28 1.302-2.93 1.953-.98 2.279-2.45 4.069-4.4 5.371a136.925 136.925 0 0 1-5.86 4.394 47.782 47.782 0 0 1-8.3 5.86c-2.6 1.627-5.21 3.255-7.81 4.883-3.58 2.929-6.02 5.045-7.32 6.347-1.31.977-2.93 1.791-4.89 2.442-1.63.651-2.93 1.302-3.9 1.953-.66.325-1.14.488-1.47.488-1.63.651-3.42.977-5.37.977-1.95 0-3.91.325-5.86.976-3.58 1.302-6.67 2.116-9.28 2.442l-7.81 1.953c-1.63.651-3.09 1.139-4.39 1.465-1.31.325-3.26.325-5.86 0-3.26-.651-5.7-.489-7.33.488-1.62.976-3.25.814-4.88-.488-3.58.651-6.67 1.302-9.28 1.953-2.28.651-4.39.814-6.35.488-.97 0-1.95-.163-2.92-.488-.98-.326-1.96-.651-2.93-.977-6.19-.976-11.24-1.627-15.14-1.953-3.58-.325-6.84-.976-9.77-1.953a9.159 9.159 0 0 0-2.93-.488c-.97 0-1.79-.651-2.44-1.953-3.25.651-6.35.325-9.28-.977-2.6-1.628-4.72-3.255-6.34-4.883-.98 0-1.96-.163-2.93-.488-.65-.326-1.47-.651-2.44-.977l-6.84-2.929c-2.28-1.302-4.07-3.256-5.37-5.86-2.61 0-4.56-.651-5.86-1.953-.98-1.302-2.28-2.604-3.91-3.906-2.6 0-5.04-.651-7.32-1.953-1.95-1.628-3.58-3.418-4.88-5.371-2.61-3.256-5.05-5.86-7.33-7.813-3.58-3.581-6.35-6.51-8.3-8.789-1.95-2.604-4.39-4.394-7.32-5.371-.65-1.953-1.63-3.581-2.93-4.883a53.365 53.365 0 0 1-3.91-4.394c-1.63-3.256-2.77-5.371-3.42-6.348-.65-.977-1.3-1.79-1.95-2.441-.65-2.605-1.3-5.046-1.95-7.325a67.033 67.033 0 0 0-1.47-7.812c-.97-3.581-1.46-6.185-1.46-7.813 0-1.627-.17-3.255-.49-4.882-.33-.977-.81-1.954-1.47-2.93-.32-.977-.65-1.953-.97-2.93a24.503 24.503 0 0 1-.49-4.883c.32-1.627.32-3.418 0-5.371a95.24 95.24 0 0 0-.98-4.394 25.272 25.272 0 0 1-.49-4.883c0-2.279.17-4.557.49-6.836.33-2.604.49-5.208.49-7.812 0-.652-.16-1.465-.49-2.442v-2.93c.33-1.627.82-3.255 1.47-4.882.97-1.954 1.63-3.744 1.95-5.371-.65-2.93-.81-5.046-.49-6.348.65-1.302.65-2.279 0-2.93.65-.651 1.14-1.465 1.47-2.441.32-1.302.65-2.279.97-2.93.33-.976.49-2.116.49-3.418s.33-2.767.98-4.394c1.63-2.605 2.6-4.069 2.93-4.395.65-.651 1.14-1.139 1.46-1.465.33-2.278.65-3.743.98-4.394.33-.977.81-1.791 1.46-2.442 1.63-3.255 2.61-5.208 2.93-5.859.66-.651 1.14-1.302 1.47-1.953.32-2.604.65-4.069.98-4.395.32-.325.65-.814.97-1.465.65-1.953.98-3.58.98-4.882.32-1.628.81-3.256 1.46-4.883a33.771 33.771 0 0 1 2.45-4.883c.97-1.953 2.27-3.581 3.9-4.883 1.63-3.906 3.09-7.161 4.4-9.765 1.3-2.93 2.6-5.697 3.9-8.301 2.93-2.279 5.37-4.883 7.33-7.813a44.05 44.05 0 0 1 7.81-7.812c.65-.651 1.3-.977 1.95-.977.98-.325 2.12-.814 3.42-1.465 3.58-2.604 6.18-4.557 7.81-5.859 1.63-1.628 3.58-2.93 5.86-3.906 1.95-.651 4.88-.977 8.79-.977 4.23-.325 7.16-1.627 8.79-3.906 1.95 0 3.91-.326 5.86-.977 1.95-.976 3.91-1.953 5.86-2.929 1.3-.651 2.77-1.302 4.39-1.953 1.63-.977 3.91-1.303 6.84-.977 2.28.325 4.39.488 6.35.488 2.28-.325 4.72-.814 7.32-1.465 1.3-.325 2.77-.651 4.4-.976 1.62-.326 3.41-.488 5.37-.488 4.88.651 8.62.976 11.23.976 2.93 0 6.18.163 9.76.488 1.63 0 3.26-.162 4.89-.488 1.95-.651 3.9-.976 5.85-.976 1.63.325 3.1.488 4.4.488 1.63 0 3.25.163 4.88.488 2.28.651 3.58.977 3.91.977h1.46c1.63.325 2.93.976 3.91 1.953 1.3.651 2.77 1.302 4.39 1.953.66.651 1.47.976 2.45.976 1.3 0 2.27.326 2.93.977 1.3.326 3.25 1.139 5.85 2.441 2.28.652 4.4 1.303 6.35 1.954 1.96.651 3.26 2.115 3.91 4.394 3.58.977 6.18 2.279 7.81 3.906 1.95 1.628 3.74 2.93 5.37 3.907 1.3.976 2.61 2.441 3.91 4.394 1.3 1.628 2.77 2.93 4.39 3.906.33.977.65 1.791.98 2.442.65.651 1.14 1.627 1.46 2.929 2.61 1.628 4.89 3.744 6.84 6.348 1.95 2.279 4.72 4.069 8.3 5.371.98 2.279 2.12 4.232 3.42 5.86 1.3 1.627 2.11 3.906 2.44 6.836.65.976 1.3 2.115 1.95 3.418.98.976 1.96 2.278 2.93 3.906.33.651.82 1.465 1.47 2.441.97.977 1.63 1.953 1.95 2.93 1.63 3.581 3.42 6.999 5.37 10.254.65.976 1.47 2.116 2.44 3.418 1.31 1.302 2.28 2.767 2.93 4.394.33 1.302.49 2.604.49 3.907 0 1.302.16 2.604.49 3.906.65 1.627 1.14 3.092 1.46 4.394.33.977.66 1.791.98 2.442.65 2.604.82 5.208.49 7.812-.33 2.279-.33 4.72 0 7.324.33 1.954.49 4.069.49 6.348.32 1.953.65 3.906.97 5.859 0 2.605.17 4.721.49 6.348l1.47 5.371Zm-69.83-39.062c.65-.651.65-1.791 0-3.418-.32-1.628-1.14-2.767-2.44-3.418-.65-2.279-1.63-3.581-2.93-3.906-.97-.652-.97-1.628 0-2.93-.97-.977-2.28-1.791-3.9-2.442-1.63-.651-2.28-1.953-1.96-3.906-1.62.326-2.76 0-3.42-.976-.32-1.302-.81-2.116-1.46-2.442-2.28-1.627-3.74-3.255-4.39-4.883-.66-1.627-1.63-2.929-2.93-3.906-.98-.651-2.12-.651-3.42 0-.98.326-1.47-.488-1.47-2.441-5.21.325-9.27-.489-12.2-2.442-2.61-2.278-5.21-4.72-7.82-7.324-2.93.651-6.18.814-9.76.488-3.58-.325-7-.325-10.26 0-2.6-1.627-5.04-2.278-7.32-1.953-1.95 0-4.39-.488-7.32-1.465-1.31-.325-2.12-.976-2.45-1.953 0-1.302-.81-1.953-2.44-1.953-2.28.977-4.55.977-6.83 0-1.96-.976-4.24-1.627-6.84-1.953a26.291 26.291 0 0 1-8.3 3.418c-2.93.326-5.86.977-8.79 1.953-1.63.651-3.42 2.279-5.37 4.883-1.95 2.279-3.42 3.906-4.39 4.883l-6.84 7.812c-2.28 2.604-4.4 5.209-6.35 7.813.33 1.953.16 3.581-.49 4.883-.65.976-.81 2.278-.48 3.906-2.28 1.627-3.91 4.232-4.89 7.812l-1.95 9.766c2.28.325 4.88.325 7.81 0 2.93-.326 6.02-.651 9.28-.977a9.232 9.232 0 0 1 2.93-.488h3.42c4.88-.976 9.11-1.302 12.69-.976 3.58 0 6.84-.163 9.77-.489 3.25 0 6.35-.162 9.27-.488 3.26-.651 6.19-.326 8.79.977 3.58-1.628 7.65-2.279 12.21-1.954 4.88.326 8.79.651 11.72.977 2.6 0 4.07-.163 4.39-.488.33-.326.66-.326.98 0 9.44-.651 18.72-.326 27.83.976 9.44.977 18.88.651 28.32-.976Zm390.63-193.848c.32.977 0 2.116-.98 3.418-.65.977-.81 1.79-.49 2.441-1.3 4.883-1.62 9.766-.97 14.649.97 4.883.16 8.789-2.44 11.719 1.3 1.627 1.46 3.58.48 5.859-.65 1.953-1.14 4.069-1.46 6.348-.65 3.58-.65 7.324 0 11.23.65 3.581.16 6.673-1.47 9.277.66.977.98 2.116.98 3.418.33 1.303.81 2.279 1.47 2.93a49.02 49.02 0 0 0-.98 9.766c.32 2.929.16 6.347-.49 10.254a36.193 36.193 0 0 0-.49 5.859c.33 1.628.49 3.581.49 5.859-.65 3.581-.81 6.185-.49 7.813.65 1.628.98 3.092.98 4.394-.65 4.558-.81 8.138-.49 10.743.65 2.278.98 4.394.98 6.347 0 2.279-.17 4.72-.49 7.325v6.347c-.33 2.604-.33 4.883 0 6.836.65 1.953 1.14 3.744 1.46 5.371v6.348c.33 2.278.49 4.232.49 5.859-.65 3.906-.81 7.324-.49 10.254.33 2.604.82 5.046 1.47 7.324 0 1.302-.33 2.442-.98 3.418-.32.651-.49 1.465-.49 2.442 1.31 3.58 1.96 6.51 1.96 8.789.32 1.953.49 3.581.49 4.883-.33 2.604-.33 4.231 0 4.882.32.651.48 1.465.48 2.442.65 6.185.65 12.207 0 18.066-.32 5.534-.81 11.231-1.46 17.09 0 1.628-.33 3.093-.98 4.395a9.372 9.372 0 0 0-.49 2.929c0 2.93.49 6.511 1.47 10.742.98 3.907.65 7.65-.98 11.231-.65 1.302-.81 2.441-.49 3.418.33.976.49 2.441.49 4.394-.32 1.628-.65 2.93-.97 3.907 0 .651.16 1.953.48 3.906.65.325.82 1.302.49 2.93-.32 1.627-.49 2.929-.49 3.906 0 1.302.33 2.604.98 3.906.65.977.98 2.116.98 3.418 0 1.628-.33 3.418-.98 5.371-.65 1.953-1.14 3.744-1.46 5.371.65 2.604.65 4.232 0 4.883-.33.651-.33 1.302 0 1.953.32 1.628.32 4.558 0 8.789-.33 3.907-.49 6.673-.49 8.301-.33 3.906 0 7.975.97 12.207.98 3.906.82 7.813-.48 11.719-2.28 1.627-4.4 2.767-6.35 3.418-1.96.651-4.72.325-8.3-.977-.98-.651-2.44-1.465-4.4-2.441-1.63-.651-3.42-.977-5.37-.977-2.6-.325-5.37 0-8.3.977-2.93.976-5.21 1.302-6.84.976-.97-.325-1.95-.976-2.93-1.953-.97-.976-1.95-1.139-2.92-.488.65-2.604.48-4.232-.49-4.883-.98-.976-1.79-2.278-2.44-3.906-.33-1.628-.33-2.767 0-3.418.65-.977.97-1.79.97-2.441-1.3-2.279-1.79-4.395-1.46-6.348.65-2.279.16-4.395-1.47-6.348-1.63-.325-2.93-.163-3.9.489-.65.325-1.47.813-2.45 1.464-3.9 1.302-7.32 3.093-10.25 5.371a54.292 54.292 0 0 0-8.3 6.836c-1.95.651-3.58.977-4.88.977-1.3 0-2.77.814-4.4 2.441-1.95.651-3.9 1.14-5.86 1.465-1.62 0-2.93.489-3.9 1.465-2.93-.325-6.19.163-9.77 1.465-3.25 1.302-6.51 1.79-9.76 1.465h-3.91c-1.3-.326-2.28-1.14-2.93-2.442-3.58 2.605-8.14 4.069-13.67 4.395-5.54.325-10.26 1.465-14.16 3.418-1.63 0-2.77-.326-3.42-.977-.65-.325-1.63-.488-2.93-.488-1.63 0-2.6.163-2.93.488-.32.651-1.79.977-4.39.977a38.335 38.335 0 0 1-5.86-1.465c-1.96-.326-3.75-.814-5.37-1.465-1.63-.325-3.42-.488-5.38-.488a24.701 24.701 0 0 0-4.88-.488c-1.63 0-3.09.162-4.39.488-.98.325-2.12.488-3.42.488-1.3-.325-2.77-.651-4.4-.976-1.62-.326-3.25-.651-4.88-.977-1.95.326-4.07.326-6.35 0-1.95-.325-3.41-.651-4.39-.977-.98-.651-1.79-1.139-2.44-1.464l-1.95-1.953c-3.59-1.628-6.52-3.093-8.79-4.395-2.28-1.628-4.72-2.767-7.33-3.418-.65-.977-1.3-1.79-1.95-2.441-.65-.651-1.3-1.465-1.95-2.442-.98-.651-1.63-1.465-1.96-2.441 0-.977-.32-1.791-.97-2.442a22.928 22.928 0 0 0-4.4-3.418c-1.3-.976-2.77-2.441-4.39-4.394-1.63-2.604-3.1-4.232-4.4-4.883-.97-.976-1.95-1.953-2.93-2.93-.65-.651-1.3-1.464-1.95-2.441a31.988 31.988 0 0 0-1.95-3.418c-.65-.651-1.63-1.139-2.93-1.465a12.982 12.982 0 0 1-3.42-2.441c-.65-1.628-1.3-2.767-1.95-3.418-.33-.651-1.31-1.302-2.93-1.953-.66-2.605-1.96-4.72-3.91-6.348-1.63-1.628-2.93-3.743-3.91-6.348-.32-.976-.48-2.116-.48-3.418a8.066 8.066 0 0 0 0-3.906c-.66-3.906-1.96-7.487-3.91-10.742-1.95-3.581-3.09-7.324-3.42-11.231 0-1.627.33-3.417.98-5.371.65-1.953.97-3.58.97-4.882-.65-4.232-.97-7.325-.97-9.278 0-1.953.16-3.743.49-5.371v-10.254c.32-1.627.65-3.092.97-4.394.33-1.628.65-3.256.98-4.883.65-3.255 1.14-6.348 1.46-9.277a26.27 26.27 0 0 1 3.42-8.301c-.32-1.953-.49-4.069-.49-6.348.33-2.279.65-4.394.98-6.348.33-1.953.98-3.743 1.95-5.371a75.608 75.608 0 0 0 2.93-5.371c.65-.976 1.14-2.116 1.47-3.418.32-1.302.81-2.441 1.46-3.418 1.63-3.58 2.93-6.836 3.91-9.765 1.3-3.256 2.77-5.86 4.39-7.813.98-1.302 2.12-3.418 3.42-6.347.65-2.605 1.95-5.046 3.91-7.325 2.28-2.604 4.55-4.72 6.83-6.347v-2.93c.33-.977.49-1.79.49-2.441 1.3-.651 2.44-1.303 3.42-1.954.98-.976 1.95-1.953 2.93-2.929 1.63-1.953 2.77-3.093 3.42-3.418.65-.326 1.3-.814 1.95-1.465 2.28-2.604 4.07-4.232 5.37-4.883 1.3-.976 2.44-2.116 3.42-3.418.98-1.953 1.79-2.93 2.44-2.93.65-.325 1.14-.651 1.47-.976 2.93-2.604 4.23-3.906 3.9-3.906 1.96-1.628 3.26-2.442 3.91-2.442l1.95-.976c1.3-1.628 2.61-2.442 3.91-2.442 1.3 0 2.44-.325 3.42-.976 1.62-.651 2.76-.977 3.41-.977.98 0 1.79-.163 2.45-.488 2.6-.977 4.23-1.465 4.88-1.465.65 0 1.3-.163 1.95-.488 1.63-.977 3.74-1.791 6.35-2.442 2.93-.651 5.53-1.302 7.81-1.953.98-.325 1.79-.651 2.44-.976.65-.651 1.47-1.14 2.44-1.465 2.28-.651 4.56-.977 6.84-.977 2.6 0 4.72-.814 6.35-2.441 2.28-.977 4.07-1.139 5.37-.488 1.63.325 3.25-.163 4.88-1.465 3.91.651 6.67.976 8.3.976h4.89c4.88-1.302 9.11-1.302 12.69 0 3.91 1.302 7.65 2.767 11.23 4.395 2.6.651 4.88 1.627 6.84 2.929 2.28.977 4.23 2.442 5.86 4.395 3.58 0 6.51.651 8.79 1.953 2.6 1.302 5.2 2.767 7.81 4.395 1.95.976 3.42 1.953 4.39 2.929 1.3.977 2.28 1.791 2.93 2.442 1.96.976 3.42 1.953 4.4 2.929.97.652 1.79 1.303 2.44 1.954.97.651 1.95 1.627 2.93 2.929 1.3 1.302 2.76 1.791 4.39 1.465 1.96-1.302 2.77-2.767 2.44-4.394 0-1.954.17-3.907.49-5.86.33-1.302.65-2.441.98-3.418.32-.976.65-2.116.97-3.418v-2.929c0-1.302.17-2.442.49-3.418.65-.977 1.14-2.116 1.47-3.418.65-1.302 1.14-2.442 1.46-3.418.33-2.279 0-4.395-.97-6.348-.65-2.279 0-4.232 1.95-5.859-.98-2.93-1.3-5.534-.98-7.813.33-2.604.65-5.696.98-9.277.32-1.302.65-2.604.98-3.906.32-1.628.32-2.93 0-3.907 0-.976-.17-1.79-.49-2.441-.33-.977-.65-2.116-.98-3.418.33-.651.33-1.953 0-3.906-.32-2.279-.16-4.232.49-5.86.98-1.627 1.3-2.929.98-3.906-.33-1.302-.33-2.279 0-2.93.97-3.906 1.14-7.161.48-9.765-.32-2.604.33-4.883 1.96-6.836-1.3-2.604-1.63-5.534-.98-8.789.65-3.581 1.95-6.185 3.91-7.813 4.55-.651 9.27-.976 14.16-.976l14.65-.977c.97-.651 3.09-.814 6.34-.488 3.26 0 5.54.325 6.84.976 1.3.326 2.77 1.14 4.39 2.442 1.96 1.302 3.42 2.604 4.4 3.906Zm-63.97 203.613c-.65-1.627-1.46-2.929-2.44-3.906-.65-1.302-.97-2.93-.97-4.883-1.63-.976-2.61-2.441-2.93-4.394-.33-1.953-.82-3.581-1.47-4.883-1.63-2.279-2.77-3.581-3.42-3.906-.65-.651-1.14-1.14-1.46-1.465-1.3-2.604-1.95-4.557-1.95-5.86-2.61-.976-4.56-2.604-5.86-4.882-1.31-2.279-2.93-4.232-4.89-5.86-2.28.326-4.07-.162-5.37-1.465-.97-1.627-2.28-2.766-3.9-3.418-1.63-.976-3.59-1.627-5.86-1.953-1.96-.325-3.58-1.302-4.89-2.929-4.55-.651-8.46-1.953-11.72-3.907-2.93-1.953-6.99-3.092-12.2-3.418-1.96-.325-3.42-.976-4.4-1.953-.65-.325-.97-.651-.97-.976-2.93-.651-5.05-.651-6.35 0-1.3.325-3.26.651-5.86.976h-4.88c-1.31-.325-2.28-.488-2.93-.488-2.61.977-4.56 1.628-5.86 1.953-1.3 0-2.28.163-2.93.488-.98.326-2.12.977-3.42 1.954-1.3.651-2.28 1.139-2.93 1.464-2.28.326-3.91.814-4.88 1.465-.65.326-1.3.814-1.96 1.465a66.948 66.948 0 0 1-15.62 6.836c-.98 1.953-2.28 3.581-3.91 4.883-1.62.976-2.76 2.767-3.41 5.371-2.28.651-4.07 1.953-5.38 3.906-1.3 1.628-3.41 2.604-6.34 2.93-.65 2.604-1.79 5.045-3.42 7.324-1.3 1.953-2.44 4.232-3.42 6.836-.98 3.581-1.95 6.51-2.93 8.789-.65 1.953-.98 4.232-.98 6.836-2.6 3.581-4.06 6.51-4.39 8.789-.33 1.953-1.3 3.255-2.93 3.906 1.63 2.279 2.12 4.232 1.46 5.86-.32 1.302-.81 3.092-1.46 5.371-.98 4.232-1.3 7.324-.98 9.277.33 1.953.49 4.232.49 6.836 0 2.279-.32 4.395-.98 6.348-.32 1.953-.16 3.743.49 5.371.33 3.906 1.31 6.999 2.93 9.277 1.63 2.279 2.12 4.883 1.47 7.813 2.28 2.278 3.42 5.208 3.42 8.789 3.58 1.953 6.18 4.232 7.81 6.836 2.6.651 4.72 1.79 6.35 3.418 1.95 1.627 4.39 2.604 7.32 2.929 1.63 1.302 2.93 2.93 3.91 4.883 2.28.326 4.23.977 5.86 1.953 1.62.977 3.25 1.791 4.88 2.442 1.95 1.302 3.25 1.953 3.9 1.953.98 0 1.8.163 2.45.488 1.3.977 2.27 1.302 2.93.977.97-.326 1.79-.326 2.44 0 2.28.976 4.72 1.464 7.32 1.464h6.35c2.6.326 4.88.652 6.84.977 2.27.326 4.55.488 6.83.488 2.93-.325 6.19-1.139 9.77-2.441 3.25-.651 5.53-1.139 6.83-1.465 1.3-.325 2.28-.488 2.93-.488 2.28-.326 4.23-.326 5.86 0 1.63.325 3.26.163 4.88-.488 1.63-.652 2.77-1.465 3.42-2.442.65-.976 1.63-1.79 2.93-2.441 2.28-.651 3.58-1.14 3.91-1.465.32-.651.65-1.139.97-1.465 2.28-.977 3.75-1.79 4.4-2.441.98-.977 1.79-1.628 2.44-1.953 2.28-.977 3.42-1.791 3.42-2.442.32-.976.81-1.628 1.46-1.953.98-.977 1.79-1.628 2.45-1.953l1.95-1.953a82.234 82.234 0 0 0 2.44-3.418c.98-1.302 1.79-2.279 2.44-2.93 1.3-.651 2.28-1.465 2.93-2.441l1.95-2.93c2.28-2.93 4.4-5.859 6.35-8.789 1.95-3.255 3.58-6.348 4.88-9.277 1.63-4.558 2.77-7.65 3.42-9.278a33.638 33.638 0 0 0 2.44-4.883c-.32-1.627-.16-3.092.49-4.394.33-.651.65-1.139.98-1.465.65-.977.98-2.116.98-3.418v-16.113c.32-3.581.48-6.673.48-9.278 0-1.627.17-2.604.49-2.929.33-.651.16-1.465-.49-2.442Z"/><rect width="68.04" height="21.168" x="602.524" y="337.332" fill="#3A3A3A" rx="10.584" transform="rotate(45 602.524 337.332)"/><rect width="15.082" height="15.082" x="663.237" y="356.988" fill="#666" rx="7.541" transform="rotate(45 663.237 356.988)"/><rect width="22.68" height="22.68" x="687.51" y="329.772" fill="#89DC7C" rx="11.34" transform="rotate(45 687.51 329.772)"/></svg>