<svg width="25" height="32" viewBox="0 0 25 32" fill="none" xmlns="http://www.w3.org/2000/svg">
<path d="M21.3235 11.907C21.3235 6.97494 17.3731 2.97674 12.5 2.97674C7.62688 2.97674 3.67646 6.97494 3.67646 11.907V23.814H21.3235V11.907ZM24.2647 24.8063L24.8529 25.6C25.0966 25.9288 25.0307 26.3952 24.7058 26.6419C24.5786 26.7385 24.4238 26.7907 24.2647 26.7907H0.735293C0.329205 26.7907 0 26.4575 0 26.0465C0 25.8855 0.0516027 25.7287 0.147058 25.6L0.735293 24.8063V11.907C0.735293 5.33093 6.00252 0 12.5 0C18.9975 0 24.2647 5.33093 24.2647 11.907V24.8063ZM8.82351 28.2791H16.1764C16.1764 30.3341 14.5304 32 12.5 32C10.4695 32 8.82351 30.3341 8.82351 28.2791Z" fill="#2E2E2E"/>
</svg>
